<?xml version="1.0" encoding="utf-8"?>
<!-- Generator: Adobe Illustrator 18.0.0, SVG Export Plug-In . SVG Version: 6.00 Build 0)  -->
<!DOCTYPE svg PUBLIC "-//W3C//DTD SVG 1.1//EN" "http://www.w3.org/Graphics/SVG/1.1/DTD/svg11.dtd">
<svg version="1.1" id="Layer_1" xmlns="http://www.w3.org/2000/svg" xmlns:xlink="http://www.w3.org/1999/xlink" x="0px" y="0px"
	 viewBox="327.2 0 1265.6 1080" enable-background="new 327.2 0 1265.6 1080" xml:space="preserve">
<path fill="#3C4B62" d="M436.9,0.3h1046.3c60.6,0,109.7,49.1,109.7,109.7v0c0,60.6-49.1,109.7-109.7,109.7H436.9
	c-60.6,0-109.7-49.1-109.7-109.7v0C327.2,49.4,376.3,0.3,436.9,0.3z"/>
<path fill="#3C4B62" d="M436.9,430.6h1046.3c60.6,0,109.7,49.1,109.7,109.7v0c0,60.6-49.1,109.7-109.7,109.7H436.9
	c-60.6,0-109.7-49.1-109.7-109.7v0C327.2,479.7,376.3,430.6,436.9,430.6z"/>
<path fill="#3C4B62" d="M436.9,860.9h1046.3c60.6,0,109.7,49.1,109.7,109.7v0c0,60.6-49.1,109.7-109.7,109.7H436.9
	c-60.6,0-109.7-49.1-109.7-109.7v0C327.2,910,376.3,860.9,436.9,860.9z"/>
</svg>
