<?xml version="1.0" encoding="utf-8"?>
<!-- Generator: Adobe Illustrator 18.0.0, SVG Export Plug-In . SVG Version: 6.00 Build 0)  -->
<!DOCTYPE svg PUBLIC "-//W3C//DTD SVG 1.1//EN" "http://www.w3.org/Graphics/SVG/1.1/DTD/svg11.dtd">
<svg version="1.1" id="Layer_1" xmlns="http://www.w3.org/2000/svg" xmlns:xlink="http://www.w3.org/1999/xlink" x="0px" y="0px"
	 viewBox="0 0 30 30" enable-background="new 0 0 30 30" xml:space="preserve">
<path fill="#3C4B62" d="M27.4,7.4H2.6C1.2,7.4,0,6.3,0,4.8v0c0-1.4,1.2-2.6,2.6-2.6h24.8c1.4,0,2.6,1.2,2.6,2.6v0
	C30,6.3,28.8,7.4,27.4,7.4z"/>
<path fill="#3C4B62" d="M27.4,17.6H2.6C1.2,17.6,0,16.4,0,15v0c0-1.4,1.2-2.6,2.6-2.6h24.8c1.4,0,2.6,1.2,2.6,2.6v0
	C30,16.4,28.8,17.6,27.4,17.6z"/>
<path fill="#3C4B62" d="M27.4,27.8H2.6c-1.4,0-2.6-1.2-2.6-2.6v0c0-1.4,1.2-2.6,2.6-2.6h24.8c1.4,0,2.6,1.2,2.6,2.6v0
	C30,26.6,28.8,27.8,27.4,27.8z"/>
</svg>
