<?xml version="1.0" encoding="utf-8"?>
<!-- Generator: Adobe Illustrator 18.0.0, SVG Export Plug-In . SVG Version: 6.00 Build 0)  -->
<!DOCTYPE svg PUBLIC "-//W3C//DTD SVG 1.1//EN" "http://www.w3.org/Graphics/SVG/1.1/DTD/svg11.dtd">
<svg version="1.1" id="Layer_1" xmlns="http://www.w3.org/2000/svg" xmlns:xlink="http://www.w3.org/1999/xlink" x="0px" y="0px"
	 viewBox="0 0 982 448" enable-background="new 0 0 982 448" xml:space="preserve">
<rect x="1140.9" y="-377.1" fill="#B7AB99" width="1200.6" height="1200.7"/>
<rect x="-2170.4" y="-794.9" fill="none" width="396" height="55.3"/>
<text transform="matrix(1 0 0 1 -2066.5298 -743.3955)"><tspan x="0" y="0" font-family="'DINRoundPro'" font-size="72" letter-spacing="-5">O</tspan><tspan x="41.8" y="0" font-family="'DINRoundPro'" font-size="72" letter-spacing="-3">F</tspan><tspan x="80" y="0" font-family="'DINRoundPro'" font-size="72" letter-spacing="-1">FT</tspan><tspan x="157.5" y="0" font-family="'DINRoundPro'" font-size="72" letter-spacing="-1">-</tspan></text>
<line fill="none" stroke="#000000" stroke-width="5" stroke-linecap="round" stroke-linejoin="round" stroke-miterlimit="10" x1="-1909.2" y1="-770.4" x2="-1901.9" y2="-792.4"/>
<g>
	<path d="M-2340.3-226.4c-15.6,0-28.2,5.6-37.5,14.7c-14.2,14.2-15.2,27.1-15.2,61.5s0.9,47.3,15.2,61.5
		c9.3,9.2,21.9,14.7,37.5,14.7c15.6,0,28.2-5.6,37.5-14.7c14.2-14.2,15.2-27.1,15.2-61.5s-0.9-47.3-15.2-61.5
		C-2312.1-220.8-2324.7-226.4-2340.3-226.4z M-2314.4-99c-6.8,7.1-15.7,10.7-25.9,10.7c-10.2,0-19.1-3.7-25.9-10.7
		c-9.4-9.6-10.5-20.3-10.5-51.2c0-30.8,1.2-41.6,10.5-51.2c6.8-7.1,15.7-10.7,25.9-10.7c10.2,0,19.1,3.7,25.9,10.7
		c9.4,9.6,10.5,20.3,10.5,51.2C-2303.9-119.3-2305.1-108.6-2314.4-99z"/>
	<path d="M-2174.3-223.8c-1.6-0.9-2.9-1.3-6.9-1.3h-74.1c-2.5,0-5.4,0-7.6,2.2c-2.2,2.2-2.2,5.1-2.2,7.6v130c0,4.2,0.2,5.6,1.5,7.6
		c1.3,2,3.7,3.4,6.6,3.4c2.9,0,5.4-1.4,6.6-3.4c1.3-2,1.5-3.4,1.5-7.6V-138c0-1.8,1.5-3.3,3.3-3.3h53c4,0,5.4-0.3,7-1.3
		c1.9-1.3,3.1-3.4,3.1-5.9c0-2.5-1.2-4.6-3.1-5.9c-1.6-0.9-2.9-1.3-7-1.3h-53c-1.8,0-3.3-1.5-3.3-3.3v-48.6c0-1.8,1.5-3.3,3.3-3.3
		h64.4c4,0,5.4-0.3,6.9-1.3c1.9-1.3,3.1-3.4,3.1-5.9C-2171.2-220.5-2172.4-222.6-2174.3-223.8z"/>
	<path d="M-2062.4-223.8c-1.6-0.9-2.9-1.3-6.9-1.3h-74.1c-2.5,0-5.4,0-7.6,2.2c-2.2,2.2-2.2,5.1-2.2,7.6v130c0,4.2,0.2,5.6,1.5,7.6
		c1.3,2,3.7,3.4,6.6,3.4c2.9,0,5.4-1.4,6.6-3.4c1.3-2,1.5-3.4,1.5-7.6V-138c0-1.8,1.5-3.3,3.3-3.3h53c4,0,5.4-0.3,7-1.3
		c1.9-1.3,3.1-3.4,3.1-5.9c0-2.5-1.2-4.6-3.1-5.9c-1.6-0.9-2.9-1.3-7-1.3h-53c-1.8,0-3.3-1.5-3.3-3.3v-48.6c0-1.8,1.5-3.3,3.3-3.3
		h64.4c4,0,5.4-0.3,6.9-1.3c1.9-1.3,3.1-3.4,3.1-5.9C-2059.4-220.5-2060.5-222.6-2062.4-223.8z"/>
	<path d="M-1945.6-223.8c-1.6-0.9-2.9-1.3-6.9-1.3h-84.4c-4,0-5.4,0.3-6.9,1.3c-1.9,1.3-3.1,3.4-3.1,5.9c0,2.5,1.2,4.6,3.1,5.9
		c1.6,0.9,2.9,1.3,6.9,1.3h30.8c1.8,0,3.3,1.5,3.3,3.3v122.2c0,4.2,0.2,5.6,1.5,7.6c1.3,2,3.7,3.4,6.6,3.4s5.4-1.4,6.6-3.4
		c1.3-2,1.5-3.4,1.5-7.6v-122.2c0-1.8,1.5-3.3,3.3-3.3h30.8c4,0,5.4-0.3,6.9-1.3c1.9-1.3,3.1-3.4,3.1-5.9
		C-1942.5-220.5-1943.7-222.6-1945.6-223.8z"/>
	<path d="M-1828.2-226c-2.9,0-5.4,1.4-6.6,3.4c-1.3,2-1.5,3.4-1.5,7.6v53.8c0,1.8-1.5,3.3-3.3,3.3h-64.2c-1.8,0-3.3-1.5-3.3-3.3
		V-215c0-4.2-0.2-5.6-1.5-7.6c-1.3-2-3.7-3.4-6.6-3.4c-2.9,0-5.4,1.4-6.6,3.4c-1.3,2-1.5,3.4-1.5,7.6v129.7c0,4.2,0.2,5.6,1.5,7.6
		c1.3,2,3.7,3.4,6.6,3.4c2.9,0,5.4-1.4,6.6-3.4c1.3-2,1.5-3.4,1.5-7.6v-55c0-1.8,1.5-3.3,3.3-3.3h64.2c1.8,0,3.3,1.5,3.3,3.3v55
		c0,4.2,0.2,5.6,1.5,7.6c1.3,2,3.7,3.4,6.6,3.4c2.9,0,5.4-1.4,6.6-3.4c1.3-2,1.5-3.4,1.5-7.6V-215c0-4.2-0.2-5.6-1.5-7.6
		C-1822.8-224.6-1825.3-226-1828.2-226z"/>
	<path d="M-1705.8-210.8c4,0,5.4-0.3,6.9-1.3c1.9-1.3,3.1-3.4,3.1-5.9c0-2.5-1.2-4.6-3.1-5.9c-1.6-0.9-2.9-1.3-6.9-1.3h-74.1
		c-2.5,0-5.4,0-7.6,2.2c-2.2,2.2-2.2,5.1-2.2,7.6V-85c0,2.5,0,5.4,2.2,7.6c2.2,2.2,5.1,2.2,7.6,2.2h74.1c4,0,5.4-0.3,6.9-1.3
		c1.9-1.3,3.1-3.4,3.1-5.9s-1.2-4.6-3.1-5.9c-1.6-0.9-2.9-1.3-6.9-1.3h-64.4c-1.8,0-3.3-1.5-3.3-3.3v-47.5c0-1.8,1.5-3.3,3.3-3.3
		h52.9c4,0,5.4-0.3,6.9-1.3c1.9-1.3,3.1-3.4,3.1-5.9s-1.2-4.6-3.1-5.9c-1.6-0.9-2.9-1.3-6.9-1.3h-52.9c-1.8,0-3.3-1.5-3.3-3.3v-46.3
		c0-1.8,1.5-3.3,3.3-3.3H-1705.8z"/>
	<path d="M-1583.2-226c-1.6,0-3.3,0.5-4.4,1.6c-1.6,1.4-2.3,2.7-3.5,6.2l-36.3,111.1c-0.4,1.3-2.3,1.3-2.8,0l-13.8-42.3
		c-0.6-1.7-0.6-3.5,0-5.2l20.4-61.7c1.3-3.8-0.8-8-4.6-9.2c-3.8-1.3-8,0.8-9.2,4.6l-13.6,41.3c-0.4,1.3-2.3,1.3-2.8,0l-12.6-38.5
		c-1.2-3.5-1.9-4.8-3.5-6.2c-1.2-1.1-2.8-1.6-4.4-1.6c-3.4,0-6.8,2.3-7.6,5.5c-0.4,2-0.2,3.7,0.9,7.2l43.4,130.2
		c0.9,2.9,2.1,5.4,3.4,6.5c1.7,1.7,3.3,2.2,5.5,2.2c2.1,0,3.7-0.5,5.5-2.2c1.3-1.2,2.4-3.6,3.4-6.5l43.4-130.2
		c1.2-3.5,1.4-5.2,0.9-7.2C-1576.4-223.6-1579.9-226-1583.2-226z"/>
	<path d="M-1548.9-226c-2.9,0-5.4,1.4-6.6,3.4c-1.3,2-1.5,3.4-1.5,7.6v129.7c0,4.2,0.2,5.6,1.5,7.6c1.3,2,3.7,3.4,6.6,3.4
		c2.9,0,5.4-1.4,6.6-3.4c1.3-2,1.5-3.4,1.5-7.6V-215c0-4.2-0.2-5.6-1.5-7.6C-1543.5-224.6-1545.9-226-1548.9-226z"/>
	<path d="M-1407.9-226c-2.9,0-5.4,1.4-6.6,3.4c-1.3,2-1.5,3.4-1.5,7.6v103.3c0,1.8-2.3,2.5-3.3,1l-73.7-108.9
		c-2.8-4.1-5.3-6.4-9.2-6.4c-2.4,0-4.6,0.9-6.1,2.5c-1.8,1.8-2.5,4.2-2.5,8.1v130c0,4.2,0.2,5.6,1.5,7.6c1.3,2,3.7,3.4,6.6,3.4
		c2.9,0,5.4-1.4,6.6-3.4c1.3-2,1.5-3.4,1.5-7.6v-103.3c0-1.8,2.3-2.5,3.3-1l73.7,108.9c2.7,4.1,5.3,6.4,9.2,6.4
		c2.4,0,4.5-0.9,6.1-2.5c1.8-1.8,2.5-4.2,2.5-8.1v-130c0-4.2-0.2-5.6-1.5-7.6C-1402.5-224.6-1404.9-226-1407.9-226z"/>
	<path d="M-1278.5-88.2c-1.6-0.9-2.9-1.3-6.9-1.3h-64.4c-1.8,0-3.3-1.5-3.3-3.3v-47.5c0-1.8,1.5-3.3,3.3-3.3h52.9
		c4,0,5.4-0.3,6.9-1.3c1.9-1.3,3.1-3.4,3.1-5.9s-1.2-4.6-3.1-5.9c-1.6-0.9-2.9-1.3-6.9-1.3h-52.9c-1.8,0-3.3-1.5-3.3-3.3v-46.3
		c0-1.8,1.5-3.3,3.3-3.3h64.4c4,0,5.4-0.3,6.9-1.3c1.9-1.3,3.1-3.4,3.1-5.9c0-2.5-1.2-4.6-3.1-5.9c-1.6-0.9-2.9-1.3-6.9-1.3h-74.1
		c-2.5,0-5.4,0-7.6,2.2c-2.2,2.2-2.2,5.1-2.2,7.6V-85c0,2.5,0,5.4,2.2,7.6c2.2,2.2,5.1,2.2,7.6,2.2h74.1c4,0,5.4-0.3,6.9-1.3
		c1.9-1.3,3.1-3.4,3.1-5.9S-1276.6-87-1278.5-88.2z"/>
</g>
<path d="M-2005.2-450.9c-1.6,0-3.3,0.5-4.4,1.6c-1.6,1.4-2.3,2.7-3.5,6.2l-36.3,111.1c-0.4,1.3-2.3,1.3-2.8,0l-13.8-42.3
	c-0.6-1.7-0.6-3.5,0-5.2l20.4-61.7c1.3-3.8-0.8-8-4.6-9.2c-3.8-1.3-8,0.8-9.2,4.6l-13.6,41.3c-0.4,1.3-2.3,1.3-2.8,0l-12.6-38.5
	c-1.2-3.5-1.9-4.8-3.5-6.2c-1.2-1.1-2.8-1.6-4.4-1.6c-3.4,0-6.8,2.3-7.6,5.5c-0.4,2-0.2,3.7,0.9,7.2l43.4,130.2
	c0.9,2.9,2.1,5.4,3.4,6.5c1.7,1.7,3.3,2.2,5.5,2.2c2.1,0,3.7-0.5,5.5-2.2c1.3-1.2,2.4-3.6,3.4-6.5l43.4-130.2
	c1.2-3.5,1.4-5.2,0.9-7.2C-1998.4-448.6-2001.9-450.9-2005.2-450.9z"/>
<path d="M-933.4-1135.4c-1.6-0.9-2.9-1.3-7-1.3h-84.4c-4,0-5.4,0.3-6.9,1.3c-1.9,1.3-3.1,3.4-3.1,5.9c0,2.5,1.2,4.6,3.1,5.9
	c1.6,0.9,2.9,1.3,6.9,1.3h30.8c1.8,0,3.3,1.5,3.3,3.3v148.2c0,4.2,0.2,5.6,1.5,7.6c1.3,2,3.7,3.4,6.6,3.4s5.4-1.4,6.6-3.4
	c1.3-2,1.5-3.4,1.5-7.6V-1119c0-1.8,1.5-3.3,3.3-3.3h30.8c4,0,5.4-0.3,7-1.3c1.9-1.3,3.1-3.4,3.1-5.9
	C-930.4-1132-931.5-1134.1-933.4-1135.4z"/>
<path fill="none" stroke="#000000" stroke-width="14" stroke-linecap="round" stroke-linejoin="round" stroke-miterlimit="10" d="
	M-980.3-1095.7c0,0-18.9,0-29.5,0c-56.8,0-56.8,90.1,0,90.1c10.6,0,29.5,0,29.5,0"/>
<path fill="none" stroke="#000000" stroke-width="14" stroke-linecap="round" stroke-linejoin="round" stroke-miterlimit="10" d="
	M-984.9-1005.6c0,0,18.9,0,29.5,0c56.8,0,56.8-90.1,0-90.1c-10.6,0-29.5,0-29.5,0"/>
<line fill="none" stroke="#000000" stroke-width="14.5" stroke-linecap="round" stroke-linejoin="round" stroke-miterlimit="10" x1="-1134.4" y1="-1025.4" x2="-1109.6" y2="-1050.1"/>
<line fill="none" stroke="#000000" stroke-width="14.5" stroke-linecap="round" stroke-linejoin="round" stroke-miterlimit="10" x1="-1109.6" y1="-1050.1" x2="-1134.4" y2="-1074.9"/>
<line fill="none" stroke="#000000" stroke-width="14.5" stroke-linecap="round" stroke-linejoin="round" stroke-miterlimit="10" x1="-830.8" y1="-1075.4" x2="-855.5" y2="-1050.7"/>
<line fill="none" stroke="#000000" stroke-width="14.5" stroke-linecap="round" stroke-linejoin="round" stroke-miterlimit="10" x1="-855.5" y1="-1050.7" x2="-830.8" y2="-1025.9"/>
<line fill="none" stroke="#000000" stroke-width="15" stroke-linecap="round" stroke-linejoin="round" stroke-miterlimit="10" x1="-982.6" y1="-1003.1" x2="-1071" y2="-1091.4"/>
<line fill="none" stroke="#000000" stroke-width="15" stroke-linecap="round" stroke-linejoin="round" stroke-miterlimit="10" x1="-982.6" y1="-1003" x2="-894.2" y2="-1091.4"/>
<path d="M-1191.7-1064.3l10.7,10.7c1.9,1.9,1.9,5,0,7l-10.7,10.7c-1.9,1.9-5,1.9-7,0l-10.7-10.7c-1.9-1.9-1.9-5,0-7l10.7-10.7
	C-1196.8-1066.2-1193.7-1066.2-1191.7-1064.3z"/>
<line fill="none" stroke="#000000" stroke-width="15" stroke-linecap="round" stroke-linejoin="round" stroke-miterlimit="10" x1="-1166" y1="-845.9" x2="-1120.2" y2="-845.9"/>
<path d="M-1488.7-922.5c-15.6,0-28.2,5.6-37.5,14.7c-14.2,14.2-15.2,27.1-15.2,61.5s0.9,47.3,15.2,61.5c9.3,9.2,21.9,14.7,37.5,14.7
	c15.6,0,28.2-5.6,37.5-14.7c14.2-14.2,15.2-27.1,15.2-61.5s-0.9-47.3-15.2-61.5C-1460.5-916.9-1473.1-922.5-1488.7-922.5z
	 M-1462.8-795.1c-6.8,7.1-15.7,10.7-25.9,10.7c-10.2,0-19.1-3.7-25.9-10.7c-9.4-9.6-10.5-20.3-10.5-51.2c0-30.8,1.2-41.6,10.5-51.2
	c6.8-7.1,15.7-10.7,25.9-10.7c10.2,0,19.1,3.7,25.9,10.7c9.4,9.6,10.5,20.3,10.5,51.2C-1452.3-815.4-1453.4-804.7-1462.8-795.1z"/>
<path d="M-1210.8-920c-1.6-0.9-2.9-1.3-6.9-1.3h-74.1c-2.5,0-5.4,0-7.6,2.2c-2.2,2.2-2.2,5.1-2.2,7.6v130c0,4.2,0.2,5.6,1.5,7.6
	c1.3,2,3.7,3.4,6.6,3.4c2.9,0,5.4-1.4,6.6-3.4c1.3-2,1.5-3.4,1.5-7.6v-35.8l21.2-20.3h35.2v0.1c3,0,4.6-0.2,5.8-0.7
	c0.5-0.2,0.9-0.4,1.3-0.6c1.9-1.3,3.1-3.4,3.1-5.9c0-2.5-1.2-4.6-3.1-5.9c-1.6-0.9-2.9-1.3-6.9-1.3h-42.3l-14.2,13.3v-68.4h67.7
	c4,0,5.4-0.3,6.9-1.3c1.9-1.3,3.1-3.4,3.1-5.9C-1207.8-916.6-1208.9-918.7-1210.8-920z"/>
<path d="M-1094-920c-1.6-0.9-2.9-1.3-7-1.3h-84.4c-4,0-5.4,0.3-6.9,1.3c-1.9,1.3-3.1,3.4-3.1,5.9c0,2.5,1.2,4.6,3.1,5.9
	c1.6,0.9,2.9,1.3,6.9,1.3h34.1v125.5c0,4.2,0.2,5.6,1.5,7.6c1.3,2,3.7,3.4,6.6,3.4c2.9,0,5.4-1.4,6.6-3.4c1.3-2,1.5-3.4,1.5-7.6
	v-125.5h34.1c4,0,5.4-0.3,7-1.3c1.9-1.3,3.1-3.4,3.1-5.9C-1090.9-916.6-1092.1-918.7-1094-920z"/>
<path d="M-984.7-781.4c0,4.2,0.2,5.6,1.5,7.6c1.3,2,3.7,3.4,6.6,3.4s5.4-1.4,6.6-3.4c1.3-2,1.5-3.4,1.5-7.6v-129.7
	c0-4.2-0.2-5.6-1.5-7.6c-1.3-2-3.7-3.4-6.6-3.4s-5.4,1.4-6.6,3.4c-1.3,2-1.5,3.4-1.5,7.6V-781.4z"/>
<path d="M-1055.4-781.4c0,4.2-0.2,5.6-1.5,7.6c-1.3,2-3.7,3.4-6.6,3.4c-2.9,0-5.4-1.4-6.6-3.4c-1.3-2-1.5-3.4-1.5-7.6v-129.7
	c0-4.2,0.2-5.6,1.5-7.6c1.3-2,3.7-3.4,6.6-3.4c2.9,0,5.4,1.4,6.6,3.4c1.3,2,1.5,3.4,1.5,7.6V-781.4z"/>
<path d="M-854.2-906.9c4,0,5.4-0.3,6.9-1.3c1.9-1.3,3.1-3.4,3.1-5.9c0-2.5-1.2-4.6-3.1-5.9c-1.6-0.9-2.9-1.3-6.9-1.3h-74.1
	c-2.5,0-5.4,0-7.6,2.2c-2.2,2.2-2.2,5.1-2.2,7.6v130.4c0,2.5,0,5.4,2.2,7.6s5.1,2.2,7.6,2.2h74.1c4,0,5.4-0.3,6.9-1.3
	c1.9-1.3,3.1-3.4,3.1-5.9c0-2.5-1.2-4.6-3.1-5.9c-1.6-0.9-2.9-1.3-6.9-1.3h-67.7v-31.5c0-1.7,0.7-3.2,1.9-4.4l16.2-15.5
	c1.8-1.7,4.3-2.7,6.8-2.7h31.4c4,0,5.4-0.3,6.9-1.3c1.9-1.3,3.1-3.4,3.1-5.9c0-2.5-1.2-4.6-3.1-5.9c-1.6-0.9-2.9-1.3-6.9-1.3h-38.5
	c-2.5,0-4.9,0.9-6.7,2.7l-11.1,10.3v-65.9H-854.2z"/>
<path d="M-731.6-922.1c-1.6,0-3.3,0.5-4.4,1.6c-1.6,1.4-2.3,2.7-3.5,6.2L-777.2-799l-16.1-49.2l21.3-64.3c1.3-3.8-0.8-8-4.6-9.2
	c-3.8-1.3-8,0.8-9.2,4.6l-15,45.5l-14-42.7c-1.2-3.5-1.9-4.8-3.5-6.2c-1.2-1.1-2.8-1.6-4.4-1.6c-3.4,0-6.8,2.3-7.6,5.5
	c-0.4,2-0.2,3.7,0.9,7.2l43.4,130.2c0.9,2.9,2.1,5.4,3.4,6.5c1.7,1.7,3.3,2.2,5.5,2.2c2.1,0,3.7-0.5,5.5-2.2
	c1.3-1.2,2.4-3.6,3.4-6.5l43.4-130.2c1.2-3.5,1.4-5.2,0.9-7.2C-724.8-919.8-728.3-922.1-731.6-922.1z"/>
<path d="M-697.2-922.1c-2.9,0-5.4,1.4-6.6,3.4c-1.3,2-1.5,3.4-1.5,7.6v129.7c0,4.2,0.2,5.6,1.5,7.6c1.3,2,3.7,3.4,6.6,3.4
	c2.9,0,5.4-1.4,6.6-3.4c1.3-2,1.5-3.4,1.5-7.6v-129.7c0-4.2-0.2-5.6-1.5-7.6C-691.9-920.7-694.3-922.1-697.2-922.1z"/>
<path d="M-556.2-922.1c-2.9,0-5.4,1.4-6.6,3.4c-1.3,2-1.5,3.4-1.5,7.6V-802l-77-113.7c-2.8-4.1-5.3-6.4-9.2-6.4
	c-2.4,0-4.6,0.9-6.1,2.5c-1.8,1.8-2.5,4.2-2.5,8.1v130c0,4.2,0.2,5.6,1.5,7.6c1.3,2,3.7,3.4,6.6,3.4c2.9,0,5.4-1.4,6.6-3.4
	c1.3-2,1.5-3.4,1.5-7.6v-109.2l77,113.7c2.7,4.1,5.3,6.4,9.2,6.4c2.4,0,4.5-0.9,6.1-2.5c1.8-1.8,2.5-4.2,2.5-8.1v-130
	c0-4.2-0.2-5.6-1.5-7.6C-550.9-920.7-553.3-922.1-556.2-922.1z"/>
<path d="M-1322.7-920.4c-1.6-0.9-2.9-1.3-6.9-1.3h-74.1c-2.5,0-5.4,0-7.6,2.2c-2.2,2.2-2.2,5.1-2.2,7.6v130c0,4.2,0.2,5.6,1.5,7.6
	c1.3,2,3.7,3.4,6.6,3.4c2.9,0,5.4-1.4,6.6-3.4c1.3-2,1.5-3.4,1.5-7.6v-35.8l21.2-20.3h35.2v0.1c3,0,4.6-0.2,5.8-0.7
	c0.5-0.2,0.9-0.4,1.3-0.6c1.9-1.3,3.1-3.4,3.1-5.9c0-2.5-1.2-4.6-3.1-5.9c-1.6-0.9-2.9-1.3-6.9-1.3h-42.3l-14.2,13.3v-68.4h67.7
	c4,0,5.4-0.3,6.9-1.3c1.9-1.3,3.1-3.4,3.1-5.9C-1319.6-917.1-1320.8-919.2-1322.7-920.4z"/>
<path d="M-433.8-907c4,0,5.4-0.3,6.9-1.3c1.9-1.3,3.1-3.4,3.1-5.9c0-2.5-1.2-4.6-3.1-5.9c-1.6-0.9-2.9-1.3-6.9-1.3h-74.1
	c-2.5,0-5.4,0-7.6,2.2c-2.2,2.2-2.2,5.1-2.2,7.6v130.4c0,2.5,0,5.4,2.2,7.6s5.1,2.2,7.6,2.2h74.1c4,0,5.4-0.3,6.9-1.3
	c1.9-1.3,3.1-3.4,3.1-5.9c0-2.5-1.2-4.6-3.1-5.9c-1.6-0.9-2.9-1.3-6.9-1.3h-67.7v-31.5c0-1.7,0.7-3.2,1.9-4.4l16.2-15.5
	c1.8-1.7,4.3-2.7,6.8-2.7h31.4c4,0,5.4-0.3,6.9-1.3c1.9-1.3,3.1-3.4,3.1-5.9c0-2.5-1.2-4.6-3.1-5.9c-1.6-0.9-2.9-1.3-6.9-1.3h-38.5
	c-2.5,0-4.9,0.9-6.7,2.7l-11.1,10.3V-907H-433.8z"/>
<line fill="none" stroke="#000000" stroke-width="15" stroke-linecap="round" stroke-linejoin="round" stroke-miterlimit="10" x1="-619.8" y1="-830.1" x2="-587.4" y2="-862.5"/>
<line fill="none" stroke="#000000" stroke-width="15" stroke-linecap="round" stroke-linejoin="round" stroke-miterlimit="10" x1="-1078.2" y1="-846.8" x2="-1020.1" y2="-819.8"/>
<line fill="none" stroke="#000000" stroke-width="15" stroke-linecap="round" stroke-linejoin="round" stroke-miterlimit="10" x1="-961.9" y1="-846.8" x2="-1020.1" y2="-819.8"/>
<path d="M-766.5-1064.8l10.7,10.7c1.9,1.9,1.9,5,0,7l-10.7,10.7c-1.9,1.9-5,1.9-7,0l-10.7-10.7c-1.9-1.9-1.9-5,0-7l10.7-10.7
	C-771.5-1066.7-768.4-1066.7-766.5-1064.8z"/>
<path d="M-1485.2-860.5l10.7,10.7c1.9,1.9,1.9,5,0,7l-10.7,10.7c-1.9,1.9-5,1.9-7,0l-10.7-10.7c-1.9-1.9-1.9-5,0-7l10.7-10.7
	C-1490.3-862.4-1487.2-862.4-1485.2-860.5z"/>
<line fill="none" stroke="#000000" stroke-width="15" stroke-linecap="round" stroke-linejoin="round" stroke-miterlimit="10" x1="-708.2" y1="-845.9" x2="-686.3" y2="-845.9"/>
<rect x="-1433.8" y="-627.6" fill="none" width="627" height="103.5"/>
<text transform="matrix(1 0 0 1 -1412.3547 -552.4014)" fill="#4B3231" font-family="'DINRoundPro-Bold'" font-size="105" letter-spacing="39">WINERY</text>
<path fill="#726658" d="M1622.6,62.8c1.4,1.4,1.4,3.7,0,5.1l-13.8,13.8c-2.4,2.4-2.6,6.6-0.1,8.9c1.2,1.1,2.7,1.7,4.2,1.7
	c1.6,0,3.1-0.6,4.3-1.8l20.9-20.9c1.2-1.2,1.8-2.8,1.8-4.3c0-1.2-0.3-2.3-1-3.4c-0.2-0.3-0.5-0.7-0.8-1l-20.7-20.7
	c-2.4-2.4-6.3-2.6-8.7-0.3c-2.5,2.4-2.6,6.4-0.1,8.8L1622.6,62.8z"/>
<path fill="#726658" d="M1843.9,69.2l20.9,20.9c1.2,1.2,2.8,1.8,4.3,1.8c1.5,0,3-0.6,4.2-1.7c2.5-2.4,2.4-6.5-0.1-8.9l-13.9-13.9
	c-1.4-1.4-1.4-3.7,0-5.1l13.9-13.9c2.4-2.4,2.6-6.3,0.3-8.7c-2.4-2.5-6.4-2.6-8.8-0.1l-20.9,20.9c-1.2,1.2-1.8,2.8-1.8,4.3
	c0,1.2,0.3,2.3,1,3.4C1843.4,68.6,1843.6,68.9,1843.9,69.2z"/>
<path fill="#726658" d="M1558.5,77.3c1.6,1.6,4.3,1.6,5.9,0l9-9c1.6-1.6,1.6-4.3,0-5.9l-9-9c-1.6-1.6-4.3-1.6-5.9,0l-9,9
	c-1.6,1.6-1.6,4.3,0,5.9L1558.5,77.3z"/>
<path fill="#726658" d="M1313.7,170.6c-13.2,0-23.8,4.7-31.6,12.4c-12,12-12.8,22.8-12.8,51.9s0.8,39.9,12.8,51.9
	c7.8,7.7,18.5,12.4,31.6,12.4c13.2,0,23.8-4.7,31.6-12.4c12-12,12.8-22.8,12.8-51.9s-0.8-39.9-12.8-51.9
	C1337.5,175.3,1326.8,170.6,1313.7,170.6z M1335.5,278.1c-5.8,6-13.2,9.1-21.9,9.1c-8.6,0-16.1-3.1-21.9-9.1
	c-7.9-8.1-8.9-17.2-8.9-43.2c0-26,1-35.1,8.9-43.2c5.8-6,13.2-9.1,21.9-9.1c8.6,0,16.1,3.1,21.9,9.1c7.9,8.1,8.9,17.2,8.9,43.2
	C1344.4,261,1343.5,270,1335.5,278.1z"/>
<path fill="#726658" d="M1506.3,242.3h26.5v0.1c2.6,0,3.9-0.2,4.9-0.6c0.4-0.1,0.7-0.3,1.1-0.5c1.6-1.1,2.6-2.8,2.6-5
	c0-2.1-1-3.9-2.6-5c-1.3-0.8-2.5-1.1-5.9-1.1h-32.6c-2,0-3.9,0.8-5.4,2.1l-7.8,7.3c-0.7,0.7-1.9,0.2-1.9-0.8v-53.1
	c0-1.2,0.9-2.1,2.1-2.1h55.1c3.4,0,4.5-0.3,5.9-1.1c1.6-1.1,2.6-2.8,2.6-5c0-2.1-1-3.9-2.6-5c-1.3-0.8-2.5-1.1-5.9-1.1h-62.6
	c-2.1,0-4.5,0-6.4,1.9c-1.9,1.9-1.9,4.3-1.9,6.4v109.8c0,3.6,0.2,4.7,1.2,6.4c1.1,1.7,3.1,2.8,5.6,2.8c2.5,0,4.5-1.2,5.6-2.8
	c1.1-1.7,1.2-2.8,1.2-6.4v-26.4c0-2.4,1-4.8,2.8-6.5l12.8-12.3C1502.3,243.1,1504.3,242.3,1506.3,242.3z"/>
<path fill="#726658" d="M1647,172.7c-1.3-0.8-2.5-1.1-5.9-1.1h-71.3c-3.4,0-4.5,0.3-5.9,1.1c-1.6,1.1-2.6,2.8-2.6,5
	c0,2.1,1,3.9,2.6,5c1.3,0.8,2.5,1.1,5.9,1.1h26.7c1.2,0,2.1,0.9,2.1,2.1v41c0,1.2-0.9,2.1-2.1,2.1h-10.1c-3.5,0-6.5,2.7-6.6,6.1
	c-0.1,3.6,2.8,6.5,6.3,6.5h10.4c1.2,0,2.1,0.9,2.1,2.1v46c0,3.6,0.2,4.7,1.2,6.4c1.1,1.7,3.1,2.8,5.6,2.8c2.5,0,4.5-1.2,5.6-2.8
	c1.1-1.7,1.2-2.8,1.2-6.4v-46c0-1.2,0.9-2.1,2.1-2.1h10.1c3.5,0,6.5-2.7,6.6-6.1c0.1-3.6-2.8-6.5-6.3-6.5h-10.4
	c-1.2,0-2.1-0.9-2.1-2.1v-41c0-1.2,0.9-2.1,2.1-2.1h26.7c3.4,0,4.5-0.3,5.9-1.1c1.6-1.1,2.6-2.8,2.6-5
	C1649.5,175.5,1648.6,173.8,1647,172.7z"/>
<path fill="#726658" d="M1857.9,292.2c0-2.1-1-3.9-2.6-5c-1.3-0.8-2.5-1.1-5.9-1.1h-55.1c-1.2,0-2.1-0.9-2.1-2.1v-22.9
	c0-2.5,1-4.8,2.8-6.5l12.6-12c1.5-1.4,3.4-2.2,5.4-2.2h26.7c3.4,0,4.5-0.3,5.9-1.1c1.6-1.1,2.6-2.8,2.6-5c0-2.1-1-3.9-2.6-5
	c-1.3-0.8-2.5-1.1-5.9-1.1h-32.6c-2,0-3.9,0.8-5.4,2.1l-7.6,7.1c-0.7,0.7-1.9,0.2-1.9-0.8v-50.9c0-1.2,0.9-2.1,2.1-2.1h55.1
	c3.4,0,4.5-0.3,5.9-1.1c1.6-1.1,2.6-2.8,2.6-5c0-2.1-1-3.9-2.6-5c-1.3-0.8-2.5-1.1-5.9-1.1h-62.6c-2.1,0-4.5,0-6.4,1.9
	c-1.9,1.9-1.9,4.3-1.9,6.4v110.1c0,2.1,0,4.5,1.9,6.4s4.3,1.9,6.4,1.9h62.6c3.4,0,4.5-0.3,5.9-1.1
	C1856.9,296.1,1857.9,294.3,1857.9,292.2z"/>
<path fill="#726658" d="M1959.3,175.5c-0.6-2.7-3.6-4.6-6.4-4.6c-1.3,0-2.8,0.4-3.7,1.3c-1.3,1.2-2,2.3-2.9,5.2l-30.8,94.1
	c-0.3,1-1.8,1-2.1,0l-11.5-35.1c-0.7-2.1-0.7-4.3,0-6.4l16.9-51.1c1.1-3.2-0.7-6.7-3.9-7.8c-3.2-1.1-6.7,0.7-7.8,3.9l-11.6,35.2
	c-0.3,1-1.8,1-2.1,0l-10.7-32.8c-1-2.9-1.6-4.1-2.9-5.2c-1-0.9-2.4-1.3-3.7-1.3c-2.8,0-5.8,2-6.4,4.6c-0.4,1.7-0.2,3.1,0.8,6
	l36.6,110c0.8,2.5,1.8,4.5,2.8,5.5c1.4,1.4,2.8,1.9,4.6,1.9c1.8,0,3.1-0.4,4.6-1.9c1.1-1,2-3,2.8-5.5l36.6-110
	C1959.5,178.6,1959.6,177.2,1959.3,175.5z"/>
<path fill="#726658" d="M2101,170.9c-2.5,0-4.5,1.2-5.6,2.8c-1.1,1.7-1.2,2.8-1.2,6.4v88.1c0,1.2-1.6,1.7-2.3,0.7l-21.8-32.1
	c-0.5-0.7-0.4-1.7,0.2-2.3l8.8-8.8c2.5-2.5,2.5-6.5,0-9c-2.5-2.5-6.5-2.5-9,0l-6.6,6.6c-0.8,0.8-2.2,0.7-2.8-0.3l-31.6-46.7
	c-2.4-3.5-4.4-5.4-7.7-5.4c-2,0-3.9,0.8-5.2,2.1c-1.5,1.5-2.1,3.6-2.1,6.8v109.8c0,3.6,0.2,4.7,1.2,6.4c1.1,1.7,3.1,2.8,5.6,2.8
	c2.5,0,4.5-1.2,5.6-2.8c1.1-1.7,1.2-2.8,1.2-6.4v-88.1c0-1.2,1.6-1.7,2.3-0.7l21.8,32.1c0.5,0.7,0.4,1.7-0.2,2.3l-8.8,8.8
	c-2.5,2.5-2.5,6.5,0,9c1.2,1.2,2.9,1.9,4.5,1.9c1.6,0,3.2-0.6,4.5-1.9l6.6-6.6c0.8-0.8,2.2-0.7,2.8,0.3l31.6,46.7
	c2.3,3.5,4.4,5.4,7.7,5.4c2,0,3.8-0.8,5.2-2.1c1.5-1.5,2.1-3.6,2.1-6.8V180.2c0-3.6-0.2-4.7-1.2-6.4
	C2105.5,172.1,2103.4,170.9,2101,170.9z"/>
<path fill="#726658" d="M1453.9,172.3c-1.3-0.8-2.5-1.1-5.9-1.1h-62.6c-2.1,0-4.5,0-6.4,1.9c-1.9,1.9-1.9,4.3-1.9,6.4v109.8
	c0,3.6,0.2,4.7,1.2,6.4c1.1,1.7,3.1,2.8,5.6,2.8c2.5,0,4.5-1.2,5.6-2.8c1.1-1.7,1.2-2.8,1.2-6.4v-26.4c0-2.4,1-4.8,2.8-6.5
	l12.8-12.3c1.5-1.4,3.4-2.2,5.5-2.2h26.5v0.1c2.6,0,3.9-0.2,4.9-0.6c0.4-0.1,0.7-0.3,1.1-0.5c1.6-1.1,2.6-2.8,2.6-5
	c0-2.1-1-3.9-2.6-5c-1.3-0.8-2.5-1.1-5.9-1.1h-32.6c-2,0-3.9,0.8-5.4,2.1l-7.8,7.3c-0.7,0.7-1.9,0.2-1.9-0.8v-53.1
	c0-1.2,0.9-2.1,2.1-2.1h55.1c3.4,0,4.5-0.3,5.9-1.1c1.6-1.1,2.6-2.8,2.6-5C1456.5,175.2,1455.5,173.4,1453.9,172.3z"/>
<path fill="#726658" d="M2210.2,287.2c-1.3-0.8-2.5-1.1-5.9-1.1h-55.1c-1.2,0-2.1-0.9-2.1-2.1v-22.9c0-2.5,1-4.8,2.8-6.5l12.6-12
	c1.5-1.4,3.4-2.2,5.4-2.2h26.7c3.4,0,4.5-0.3,5.9-1.1c1.6-1.1,2.6-2.8,2.6-5c0-2.1-1-3.9-2.6-5c-1.3-0.8-2.5-1.1-5.9-1.1H2162
	c-2,0-3.9,0.8-5.4,2.1l-7.6,7.1c-0.7,0.7-1.9,0.2-1.9-0.8v-50.9c0-1.2,0.9-2.1,2.1-2.1h55.1c3.4,0,4.5-0.3,5.9-1.1
	c1.6-1.1,2.6-2.8,2.6-5c0-2.1-1-3.9-2.6-5c-1.3-0.8-2.5-1.1-5.9-1.1h-62.6c-2.1,0-4.5,0-6.4,1.9c-1.9,1.9-1.9,4.3-1.9,6.4v110.1
	c0,2.1,0,4.5,1.9,6.4c1.9,1.9,4.3,1.9,6.4,1.9h62.6c3.4,0,4.5-0.3,5.9-1.1c1.6-1.1,2.6-2.8,2.6-5
	C2212.8,290,2211.8,288.2,2210.2,287.2z"/>
<path fill="#726658" d="M1755.5,228.9l-1.2,0.5c-0.7,0.3-1.5-0.2-1.5-0.9v-48.3c0-3.6-0.2-4.7-1.2-6.4c-1.1-1.7-3.1-2.8-5.6-2.8
	c-2.5,0-4.5,1.2-5.6,2.8c-1.1,1.7-1.2,2.8-1.2,6.4v54.2c0,1.3-0.7,2.4-1.9,3l-25.9,12c-1.3,0.6-2.8,0.6-4,0l-25.9-12
	c-1.2-0.5-1.9-1.7-1.9-3v-54.2c0-3.6-0.2-4.7-1.2-6.4c-1.1-1.7-3.1-2.8-5.6-2.8c-2.5,0-4.5,1.2-5.6,2.8c-1.1,1.7-1.2,2.8-1.2,6.4
	v48.3c0,0.8-0.8,1.3-1.5,0.9l-1.2-0.5c-3.1-1.5-7-0.3-8.6,2.8c-1.6,3.2-0.2,7.1,3,8.6l6.3,2.9c1.2,0.5,1.9,1.7,1.9,3v43.5
	c0,3.6,0.2,4.7,1.2,6.4c1.1,1.7,3.1,2.8,5.6,2.8c2.5,0,4.5-1.2,5.6-2.8c1.1-1.7,1.2-2.8,1.2-6.4v-37.2c0-0.9,1-1.6,1.8-1.2
	l25.4,11.8c0,0,0,0,0,0c0.1,0,0.1,0,0.2,0.1c0.2,0.1,0.4,0.2,0.6,0.2c0.1,0,0.2,0,0.2,0.1c0.2,0.1,0.4,0.1,0.6,0.1
	c0.1,0,0.1,0,0.2,0c0.3,0,0.5,0.1,0.8,0.1c0,0,0,0,0,0s0,0,0,0c0.3,0,0.5,0,0.8-0.1c0.1,0,0.1,0,0.2,0c0.2,0,0.4-0.1,0.6-0.1
	c0.1,0,0.2,0,0.2-0.1c0.2-0.1,0.4-0.1,0.6-0.2c0.1,0,0.1,0,0.2-0.1c0,0,0,0,0,0l25.4-11.8c0.9-0.4,1.8,0.2,1.8,1.2v37.2
	c0,3.6,0.2,4.7,1.2,6.4c1.1,1.7,3.1,2.8,5.6,2.8c2.5,0,4.5-1.2,5.6-2.8c1.1-1.7,1.2-2.8,1.2-6.4v-43.5c0-1.3,0.7-2.4,1.9-3l6.3-2.9
	c3.2-1.5,4.6-5.4,3-8.6C1762.6,228.6,1758.7,227.4,1755.5,228.9z"/>
<path fill="#726658" d="M1917.6,76.9c1.6,1.6,4.3,1.6,5.9,0l9-9c1.6-1.6,1.6-4.3,0-5.9l-9-9c-1.6-1.6-4.3-1.6-5.9,0l-9,9
	c-1.6,1.6-1.6,4.3,0,5.9L1917.6,76.9z"/>
<path fill="#726658" d="M1316.6,223c-1.6-1.6-4.3-1.6-5.9,0l-9,9c-1.6,1.6-1.6,4.3,0,5.9l9,9c1.6,1.6,4.3,1.6,5.9,0l9-9
	c1.6-1.6,1.6-4.3,0-5.9L1316.6,223z"/>
<path fill="#726658" d="M1990.9,228.9c-1.2,0-2.1-0.9-2.1-2.1v-46.7c0-3.6-0.2-4.7-1.2-6.4c-1.1-1.7-3.1-2.8-5.6-2.8
	c-2.5,0-4.5,1.2-5.6,2.8c-1.1,1.7-1.2,2.8-1.2,6.4v46.7c0,1.2-0.9,2.1-2.1,2.1h0c-3.5,0-6.5,2.7-6.6,6.1c-0.1,3.6,2.8,6.5,6.3,6.5
	h0.3c1.2,0,2.1,0.9,2.1,2.1v46c0,3.6,0.2,4.7,1.2,6.4c1.1,1.7,3.1,2.8,5.6,2.8c2.5,0,4.5-1.2,5.6-2.8c1.1-1.7,1.2-2.8,1.2-6.4v-46
	c0-1.2,0.9-2.1,2.1-2.1h0.3c3.8,0,6.7-3.3,6.3-7.1C1997,231.3,1994.1,228.9,1990.9,228.9z"/>
<path fill="#726658" d="M1676.3,49.4c1,1,1.4,2.5,1.1,3.8c-0.9,3.7-1.3,7.6-1.3,11.6c0,21.8,14.4,43.9,41.9,43.9h13.4
	c1.5,0,2.7,1.2,2.7,2.7v20.8c0,3.6,0.2,4.7,1.2,6.4c1.1,1.7,3.1,2.8,5.6,2.8s4.5-1.2,5.6-2.8c1.1-1.7,1.2-2.8,1.2-6.4v-20.8
	c0-1.5,1.2-2.7,2.7-2.7h13.4c12.9,0,23.8-4.8,31.5-14c6.7-8,10.4-18.6,10.4-30c0-3.9-0.5-7.8-1.4-11.6c-0.3-1.4,0.1-2.8,1.1-3.9
	l14.5-14.5c2.5-2.5,2.5-6.6-0.1-9.1c-2.5-2.4-6.6-2.1-9,0.3L1800,37.1c-0.9,0.9-2.3,0.8-3.1-0.2c-7-9.4-18.1-15.9-33-15.9h-13.4
	c-1.5,0-2.7-1.2-2.7-2.7V7.2c0-1.5,1.2-2.8,2.8-2.8h26c3.4,0,4.5-0.3,5.9-1.1c1.6-1.1,2.6-2.8,2.6-5c0-2.1-1-3.9-2.6-5
	c-1.3-0.8-2.5-1.1-5.9-1.1h-71.3c-3.4,0-4.5,0.3-5.9,1.1c-1.6,1.1-2.6,2.8-2.6,5c0,2.1,1,3.9,2.6,5c1.3,0.8,2.5,1.1,5.9,1.1h26
	c1.5,0,2.8,1.2,2.8,2.8v11.1c0,1.5-1.2,2.7-2.7,2.7H1718c-12.9,0-23.8,4.8-31.5,14c-0.5,0.6-1,1.2-1.5,1.9c-0.7,1-2.2,1.1-3.1,0.3
	L1671,26.2c-2.5-2.5-6.5-2.7-9-0.3c-2.6,2.5-2.7,6.6-0.1,9.1L1676.3,49.4z M1794,63.4c0,0.5,0,1,0,1.5c0,8.4-2.8,16.6-7.6,22.3
	c-5.4,6.4-13.2,9.8-22.5,9.8h-3.8c-0.8,0-1.2-1-0.6-1.5l32.7-32.7C1792.9,62.1,1794,62.6,1794,63.4z M1747.8,35.5
	c0-1.5,1.2-2.7,2.7-2.7h13.4c11.4,0,19.4,5.1,24.2,12.2c0.9,1.4,0.8,3.2-0.4,4.3l-38,38c-0.7,0.7-1.9,0.2-1.9-0.8V35.5z M1693.7,45
	c0.6-0.8,1.2-1.6,1.8-2.4c5.4-6.4,13.2-9.8,22.5-9.8h13.4c1.5,0,2.7,1.2,2.7,2.7v51.1c0,1-1.2,1.5-1.9,0.8l-38.1-38.1
	C1693,48.1,1692.8,46.3,1693.7,45z M1687.9,63.4c0-0.9,1.1-1.3,1.7-0.7l32.7,32.7c0.6,0.6,0.2,1.5-0.6,1.5h-3.8
	c-20.7,0-30.1-16.7-30.1-32.1C1687.9,64.4,1687.9,63.9,1687.9,63.4z"/>
<g>
	<path fill="#726658" d="M1515.9,399.2c-0.6,2-1.3,3.9-2.7,5.1c-1.1,0.8-2.4,1.3-4,1.3c-1.6,0-2.9-0.5-4-1.3c-1.5-1.2-2.2-3-2.7-5.1
		l-11.4-45.5c-0.7-2.7-0.8-3.5-0.5-4.9c0.5-2.1,2.9-3.8,5.5-3.8c1.5,0,2.9,0.6,3.7,1.6c0.9,1.1,1.2,2,1.9,4.5l8,32l9.6-33.2
		c0.5-1.6,1.1-2.7,1.9-3.5c1-0.9,2.1-1.3,3.8-1.3c1.7,0,2.9,0.4,3.8,1.3c0.8,0.8,1.4,2,1.9,3.5l9.6,33.2l8-32
		c0.6-2.5,0.9-3.5,1.9-4.5c0.8-1,2.2-1.6,3.7-1.6c2.6,0,5,1.7,5.5,3.8c0.3,1.4,0.2,2.2-0.5,4.9l-11.4,45.5c-0.5,2.1-1.2,3.9-2.7,5.1
		c-1.1,0.8-2.4,1.3-4,1.3c-1.6,0-2.9-0.5-4-1.3c-1.5-1.2-2.1-3-2.7-5.1l-9-31.1L1515.9,399.2z"/>
	<path fill="#726658" d="M1620.1,397.7c0,2.7-0.1,3.7-0.8,5.1c-0.9,1.6-2.8,2.8-5.1,2.8s-4.2-1.1-5.1-2.8c-0.7-1.4-0.8-2.4-0.8-5.1
		v-44.8c0-2.7,0.1-3.7,0.8-5.1c0.9-1.6,2.8-2.8,5.1-2.8s4.2,1.1,5.1,2.8c0.7,1.4,0.8,2.4,0.8,5.1V397.7z"/>
	<path fill="#726658" d="M1718.5,398.3c0,2.4-0.3,4.2-1.6,5.5c-1.2,1.2-2.6,1.8-4.4,1.8c-2.7,0-4.4-1.7-6.9-5.4l-21.3-31.5v29
		c0,2.7-0.1,3.7-0.8,5.1c-0.9,1.6-2.8,2.8-5.1,2.8s-4.2-1.1-5.1-2.8c-0.7-1.4-0.8-2.4-0.8-5.1v-45.4c0-2.4,0.3-4.2,1.6-5.5
		c1.2-1.2,2.7-1.8,4.4-1.8c2.7,0,4.4,1.7,6.9,5.4l21.3,31.5v-29c0-2.7,0.1-3.7,0.8-5.1c0.9-1.6,2.8-2.8,5.1-2.8
		c2.3,0,4.2,1.1,5.1,2.8c0.7,1.4,0.8,2.4,0.8,5.1V398.3z"/>
	<path fill="#726658" d="M1772.6,403.6c-1.6-1.6-1.6-3.8-1.6-5.5v-45.6c0-1.7,0-3.9,1.6-5.5c1.6-1.6,3.8-1.6,5.5-1.6h25.7
		c2.5,0,3.5,0.1,4.6,0.7c1.5,0.8,2.5,2.5,2.5,4.5c0,2.1-1,3.8-2.5,4.5c-1.1,0.6-2.1,0.7-4.6,0.7h-21v14.1h17c2.5,0,3.5,0.1,4.6,0.7
		c1.5,0.8,2.5,2.5,2.5,4.5c0,2.1-1,3.8-2.5,4.5c-1.1,0.6-2.1,0.7-4.6,0.7h-17v14.6h21c2.5,0,3.5,0.1,4.6,0.7
		c1.5,0.8,2.5,2.5,2.5,4.5c0,2.1-1,3.8-2.5,4.5c-1.1,0.6-2.1,0.7-4.6,0.7h-25.7C1776.4,405.2,1774.3,405.2,1772.6,403.6z"/>
	<path fill="#726658" d="M1872.1,397.7c0,2.7-0.1,3.7-0.8,5.1c-0.9,1.6-2.8,2.8-5.1,2.8c-2.3,0-4.2-1.1-5.1-2.8
		c-0.7-1.4-0.8-2.4-0.8-5.1v-45.2c0-1.7,0-3.9,1.6-5.5c1.6-1.6,3.8-1.6,5.5-1.6h16.4c12.2,0,19.5,8.3,19.5,18.3
		c0,7.2-4,13-10.9,15.8l9,15.6c1.3,2.4,1.8,3.3,1.9,4.7c0.1,1.9-1,3.8-2.9,4.9c-1,0.6-2.1,0.9-3.1,0.9c-3.2,0-4.4-2.1-5.9-4.8
		l-11.1-19.4h-8.2V397.7z M1883.3,371.5c5.1,0,8.4-3.2,8.4-7.9c0-4.7-3.3-7.9-8.4-7.9h-11.1v15.8H1883.3z"/>
	<path fill="#726658" d="M1965.4,402.8c-0.7-1.4-0.8-2.4-0.8-5.1v-15.9l-13.6-27c-1.2-2.4-1.6-3.3-1.5-4.6c0-1.7,1.1-3.5,3.1-4.5
		c0.9-0.5,1.9-0.7,2.7-0.7c1,0,2,0.3,2.7,0.9c1.1,0.8,1.6,1.6,2.8,4l9.6,19.4l9.6-19.4c1.2-2.4,1.7-3.2,2.8-4
		c0.8-0.5,1.7-0.9,2.7-0.9c0.8,0,1.8,0.2,2.7,0.7c1.9,1,3,2.7,3.1,4.5c0,1.3-0.3,2.2-1.5,4.6l-13.6,27v15.9c0,2.7-0.1,3.7-0.8,5.1
		c-0.9,1.6-2.8,2.8-5.1,2.8C1968.2,405.6,1966.3,404.4,1965.4,402.8z"/>
</g>
<path fill="#3C4B62" d="M372.6,86.9c1.4,1.4,1.4,3.7,0,5.1l-13.8,13.8c-2.4,2.4-2.6,6.6-0.1,8.9c1.2,1.1,2.7,1.7,4.2,1.7
	c1.6,0,3.1-0.6,4.3-1.8l20.9-20.9c1.2-1.2,1.8-2.8,1.8-4.3c0-1.2-0.3-2.3-1-3.4c-0.2-0.3-0.5-0.7-0.8-1l-20.7-20.7
	c-2.4-2.4-6.3-2.6-8.7-0.3c-2.5,2.4-2.6,6.4-0.1,8.8L372.6,86.9z"/>
<path fill="#3C4B62" d="M593.9,93.3l20.9,20.9c1.2,1.2,2.8,1.8,4.3,1.8c1.5,0,3-0.6,4.2-1.7c2.5-2.4,2.4-6.5-0.1-8.9l-13.9-13.9
	c-1.4-1.4-1.4-3.7,0-5.1l13.9-13.9c2.4-2.4,2.6-6.3,0.3-8.7c-2.4-2.5-6.4-2.6-8.8-0.1l-20.9,20.9c-1.2,1.2-1.8,2.8-1.8,4.3
	c0,1.2,0.3,2.3,1,3.4C593.4,92.7,593.6,93,593.9,93.3z"/>
<path fill="#3C4B62" d="M308.5,101.4c1.6,1.6,4.3,1.6,5.9,0l9-9c1.6-1.6,1.6-4.3,0-5.9l-9-9c-1.6-1.6-4.3-1.6-5.9,0l-9,9
	c-1.6,1.6-1.6,4.3,0,5.9L308.5,101.4z"/>
<path fill="#3C4B62" d="M63.7,194.6c-13.2,0-23.8,4.7-31.6,12.4c-12,12-12.8,22.8-12.8,51.9c0,29.1,0.8,39.9,12.8,51.9
	c7.8,7.7,18.5,12.4,31.6,12.4c13.2,0,23.8-4.7,31.6-12.4c12-12,12.8-22.8,12.8-51.9c0-29.1-0.8-39.9-12.8-51.9
	C87.5,199.3,76.8,194.6,63.7,194.6z M85.5,302.2c-5.8,6-13.2,9.1-21.9,9.1c-8.6,0-16.1-3.1-21.9-9.1c-7.9-8.1-8.9-17.2-8.9-43.2
	c0-26,1-35.1,8.9-43.2c5.8-6,13.2-9.1,21.9-9.1c8.6,0,16.1,3.1,21.9,9.1c7.9,8.1,8.9,17.2,8.9,43.2C94.4,285,93.5,294.1,85.5,302.2z
	"/>
<path fill="#3C4B62" d="M256.3,266.4h26.5v0.1c2.6,0,3.9-0.2,4.9-0.6c0.4-0.1,0.7-0.3,1.1-0.5c1.6-1.1,2.6-2.8,2.6-5
	c0-2.1-1-3.9-2.6-5c-1.3-0.8-2.5-1.1-5.9-1.1h-32.6c-2,0-3.9,0.8-5.4,2.1l-7.8,7.3c-0.7,0.7-1.9,0.2-1.9-0.8v-53.1
	c0-1.2,0.9-2.1,2.1-2.1h55.1c3.4,0,4.5-0.3,5.9-1.1c1.6-1.1,2.6-2.8,2.6-5c0-2.1-1-3.9-2.6-5c-1.3-0.8-2.5-1.1-5.9-1.1h-62.6
	c-2.1,0-4.5,0-6.4,1.9c-1.9,1.9-1.9,4.3-1.9,6.4v109.8c0,3.6,0.2,4.7,1.2,6.4c1.1,1.7,3.1,2.8,5.6,2.8c2.5,0,4.5-1.2,5.6-2.8
	c1.1-1.7,1.2-2.8,1.2-6.4v-26.4c0-2.4,1-4.8,2.8-6.5l12.8-12.3C252.3,267.2,254.3,266.4,256.3,266.4z"/>
<path fill="#3C4B62" d="M397,196.7c-1.3-0.8-2.5-1.1-5.9-1.1h-71.3c-3.4,0-4.5,0.3-5.9,1.1c-1.6,1.1-2.6,2.8-2.6,5
	c0,2.1,1,3.9,2.6,5c1.3,0.8,2.5,1.1,5.9,1.1h26.7c1.2,0,2.1,0.9,2.1,2.1v41c0,1.2-0.9,2.1-2.1,2.1h-10.1c-3.5,0-6.5,2.7-6.6,6.1
	c-0.1,3.6,2.8,6.5,6.3,6.5h10.4c1.2,0,2.1,0.9,2.1,2.1v46c0,3.6,0.2,4.7,1.2,6.4c1.1,1.7,3.1,2.8,5.6,2.8c2.5,0,4.5-1.2,5.6-2.8
	c1.1-1.7,1.2-2.8,1.2-6.4v-46c0-1.2,0.9-2.1,2.1-2.1h10.1c3.5,0,6.5-2.7,6.6-6.1c0.1-3.6-2.8-6.5-6.3-6.5h-10.4
	c-1.2,0-2.1-0.9-2.1-2.1v-41c0-1.2,0.9-2.1,2.1-2.1h26.7c3.4,0,4.5-0.3,5.9-1.1c1.6-1.1,2.6-2.8,2.6-5
	C399.5,199.6,398.6,197.8,397,196.7z"/>
<path fill="#3C4B62" d="M607.9,316.2c0-2.1-1-3.9-2.6-5c-1.3-0.8-2.5-1.1-5.9-1.1h-55.1c-1.2,0-2.1-0.9-2.1-2.1v-22.9
	c0-2.5,1-4.8,2.8-6.5l12.6-12c1.5-1.4,3.4-2.2,5.4-2.2h26.7c3.4,0,4.5-0.3,5.9-1.1c1.6-1.1,2.6-2.8,2.6-5c0-2.1-1-3.9-2.6-5
	c-1.3-0.8-2.5-1.1-5.9-1.1h-32.6c-2,0-3.9,0.8-5.4,2.1l-7.6,7.1c-0.7,0.7-1.9,0.2-1.9-0.8v-50.9c0-1.2,0.9-2.1,2.1-2.1h55.1
	c3.4,0,4.5-0.3,5.9-1.1c1.6-1.1,2.6-2.8,2.6-5c0-2.1-1-3.9-2.6-5c-1.3-0.8-2.5-1.1-5.9-1.1h-62.6c-2.1,0-4.5,0-6.4,1.9
	c-1.9,1.9-1.9,4.3-1.9,6.4V314c0,2.1,0,4.5,1.9,6.4c1.9,1.9,4.3,1.9,6.4,1.9h62.6c3.4,0,4.5-0.3,5.9-1.1
	C606.9,320.1,607.9,318.4,607.9,316.2z"/>
<path fill="#3C4B62" d="M709.3,199.6c-0.6-2.7-3.6-4.6-6.4-4.6c-1.3,0-2.8,0.4-3.7,1.3c-1.3,1.2-2,2.3-2.9,5.2l-30.8,94.1
	c-0.3,1-1.8,1-2.1,0l-11.5-35.1c-0.7-2.1-0.7-4.3,0-6.4l16.9-51.1c1.1-3.2-0.7-6.7-3.9-7.8c-3.2-1.1-6.7,0.7-7.8,3.9l-11.6,35.2
	c-0.3,1-1.8,1-2.1,0l-10.7-32.8c-1-2.9-1.6-4.1-2.9-5.2c-1-0.9-2.4-1.3-3.7-1.3c-2.8,0-5.8,2-6.4,4.6c-0.4,1.7-0.2,3.1,0.8,6
	l36.6,110c0.8,2.5,1.8,4.5,2.8,5.5c1.4,1.4,2.8,1.9,4.6,1.9c1.8,0,3.1-0.4,4.6-1.9c1.1-1,2-3,2.8-5.5l36.6-110
	C709.5,202.7,709.6,201.3,709.3,199.6z"/>
<path fill="#3C4B62" d="M851,195c-2.5,0-4.5,1.2-5.6,2.8c-1.1,1.7-1.2,2.8-1.2,6.4v88.1c0,1.2-1.6,1.7-2.3,0.7l-21.8-32.1
	c-0.5-0.7-0.4-1.7,0.2-2.3l8.8-8.8c2.5-2.5,2.5-6.5,0-9c-2.5-2.5-6.5-2.5-9,0l-6.6,6.6c-0.8,0.8-2.2,0.7-2.8-0.3l-31.6-46.7
	c-2.4-3.5-4.4-5.4-7.7-5.4c-2,0-3.9,0.8-5.2,2.1c-1.5,1.5-2.1,3.6-2.1,6.8v109.8c0,3.6,0.2,4.7,1.2,6.4c1.1,1.7,3.1,2.8,5.6,2.8
	c2.5,0,4.5-1.2,5.6-2.8c1.1-1.7,1.2-2.8,1.2-6.4v-88.1c0-1.2,1.6-1.7,2.3-0.7l21.8,32.1c0.5,0.7,0.4,1.7-0.2,2.3l-8.8,8.8
	c-2.5,2.5-2.5,6.5,0,9c1.2,1.2,2.9,1.9,4.5,1.9c1.6,0,3.2-0.6,4.5-1.9l6.6-6.6c0.8-0.8,2.2-0.7,2.8,0.3l31.6,46.7
	c2.3,3.5,4.4,5.4,7.7,5.4c2,0,3.8-0.8,5.2-2.1c1.5-1.5,2.1-3.6,2.1-6.8V204.2c0-3.6-0.2-4.7-1.2-6.4C855.5,196.1,853.4,195,851,195z
	"/>
<path fill="#3C4B62" d="M203.9,196.4c-1.3-0.8-2.5-1.1-5.9-1.1h-62.6c-2.1,0-4.5,0-6.4,1.9c-1.9,1.9-1.9,4.3-1.9,6.4v109.8
	c0,3.6,0.2,4.7,1.2,6.4c1.1,1.7,3.1,2.8,5.6,2.8c2.5,0,4.5-1.2,5.6-2.8c1.1-1.7,1.2-2.8,1.2-6.4V287c0-2.4,1-4.8,2.8-6.5l12.8-12.3
	c1.5-1.4,3.4-2.2,5.5-2.2h26.5v0.1c2.6,0,3.9-0.2,4.9-0.6c0.4-0.1,0.7-0.3,1.1-0.5c1.6-1.1,2.6-2.8,2.6-5c0-2.1-1-3.9-2.6-5
	c-1.3-0.8-2.5-1.1-5.9-1.1h-32.6c-2,0-3.9,0.8-5.4,2.1l-7.8,7.3c-0.7,0.7-1.9,0.2-1.9-0.8v-53.1c0-1.2,0.9-2.1,2.1-2.1H198
	c3.4,0,4.5-0.3,5.9-1.1c1.6-1.1,2.6-2.8,2.6-5C206.5,199.2,205.5,197.4,203.9,196.4z"/>
<path fill="#3C4B62" d="M960.2,311.2c-1.3-0.8-2.5-1.1-5.9-1.1h-55.1c-1.2,0-2.1-0.9-2.1-2.1v-22.9c0-2.5,1-4.8,2.8-6.5l12.6-12
	c1.5-1.4,3.4-2.2,5.4-2.2h26.7c3.4,0,4.5-0.3,5.9-1.1c1.6-1.1,2.6-2.8,2.6-5c0-2.1-1-3.9-2.6-5c-1.3-0.8-2.5-1.1-5.9-1.1H912
	c-2,0-3.9,0.8-5.4,2.1l-7.6,7.1c-0.7,0.7-1.9,0.2-1.9-0.8v-50.9c0-1.2,0.9-2.1,2.1-2.1h55.1c3.4,0,4.5-0.3,5.9-1.1
	c1.6-1.1,2.6-2.8,2.6-5c0-2.1-1-3.9-2.6-5c-1.3-0.8-2.5-1.1-5.9-1.1h-62.6c-2.1,0-4.5,0-6.4,1.9c-1.9,1.9-1.9,4.3-1.9,6.4V314
	c0,2.1,0,4.5,1.9,6.4c1.9,1.9,4.3,1.9,6.4,1.9h62.6c3.4,0,4.5-0.3,5.9-1.1c1.6-1.1,2.6-2.8,2.6-5
	C962.8,314.1,961.8,312.3,960.2,311.2z"/>
<path fill="#3C4B62" d="M505.5,252.9l-1.2,0.5c-0.7,0.3-1.5-0.2-1.5-0.9v-48.3c0-3.6-0.2-4.7-1.2-6.4c-1.1-1.7-3.1-2.8-5.6-2.8
	c-2.5,0-4.5,1.2-5.6,2.8c-1.1,1.7-1.2,2.8-1.2,6.4v54.2c0,1.3-0.7,2.4-1.9,3l-25.9,12c-1.3,0.6-2.8,0.6-4,0l-25.9-12
	c-1.2-0.5-1.9-1.7-1.9-3v-54.2c0-3.6-0.2-4.7-1.2-6.4c-1.1-1.7-3.1-2.8-5.6-2.8c-2.5,0-4.5,1.2-5.6,2.8c-1.1,1.7-1.2,2.8-1.2,6.4
	v48.3c0,0.8-0.8,1.3-1.5,0.9l-1.2-0.5c-3.1-1.5-7-0.3-8.6,2.8c-1.6,3.2-0.2,7.1,3,8.6l6.3,2.9c1.2,0.5,1.9,1.7,1.9,3v43.5
	c0,3.6,0.2,4.7,1.2,6.4c1.1,1.7,3.1,2.8,5.6,2.8c2.5,0,4.5-1.2,5.6-2.8c1.1-1.7,1.2-2.8,1.2-6.4v-37.2c0-0.9,1-1.6,1.8-1.2
	l25.4,11.8c0,0,0,0,0,0c0.1,0,0.1,0,0.2,0.1c0.2,0.1,0.4,0.2,0.6,0.2c0.1,0,0.2,0,0.2,0.1c0.2,0.1,0.4,0.1,0.6,0.1
	c0.1,0,0.1,0,0.2,0c0.3,0,0.5,0.1,0.8,0.1c0,0,0,0,0,0c0,0,0,0,0,0c0.3,0,0.5,0,0.8-0.1c0.1,0,0.1,0,0.2,0c0.2,0,0.4-0.1,0.6-0.1
	c0.1,0,0.2,0,0.2-0.1c0.2-0.1,0.4-0.1,0.6-0.2c0.1,0,0.1,0,0.2-0.1c0,0,0,0,0,0l25.4-11.8c0.9-0.4,1.8,0.2,1.8,1.2v37.2
	c0,3.6,0.2,4.7,1.2,6.4c1.1,1.7,3.1,2.8,5.6,2.8c2.5,0,4.5-1.2,5.6-2.8c1.1-1.7,1.2-2.8,1.2-6.4v-43.5c0-1.3,0.7-2.4,1.9-3l6.3-2.9
	c3.2-1.5,4.6-5.4,3-8.6C512.6,252.6,508.7,251.5,505.5,252.9z"/>
<path fill="#3C4B62" d="M667.6,100.9c1.6,1.6,4.3,1.6,5.9,0l9-9c1.6-1.6,1.6-4.3,0-5.9l-9-9c-1.6-1.6-4.3-1.6-5.9,0l-9,9
	c-1.6,1.6-1.6,4.3,0,5.9L667.6,100.9z"/>
<path fill="#3C4B62" d="M66.6,247c-1.6-1.6-4.3-1.6-5.9,0l-9,9c-1.6,1.6-1.6,4.3,0,5.9l9,9c1.6,1.6,4.3,1.6,5.9,0l9-9
	c1.6-1.6,1.6-4.3,0-5.9L66.6,247z"/>
<path fill="#3C4B62" d="M740.9,253c-1.2,0-2.1-0.9-2.1-2.1v-46.7c0-3.6-0.2-4.7-1.2-6.4c-1.1-1.7-3.1-2.8-5.6-2.8
	c-2.5,0-4.5,1.2-5.6,2.8c-1.1,1.7-1.2,2.8-1.2,6.4v46.7c0,1.2-0.9,2.1-2.1,2.1h0c-3.5,0-6.5,2.7-6.6,6.1c-0.1,3.6,2.8,6.5,6.3,6.5
	h0.3c1.2,0,2.1,0.9,2.1,2.1v46c0,3.6,0.2,4.7,1.2,6.4c1.1,1.7,3.1,2.8,5.6,2.8c2.5,0,4.5-1.2,5.6-2.8c1.1-1.7,1.2-2.8,1.2-6.4v-46
	c0-1.2,0.9-2.1,2.1-2.1h0.3c3.8,0,6.7-3.3,6.3-7.1C747,255.3,744.1,253,740.9,253z"/>
<path fill="#3C4B62" d="M426.3,73.5c1,1,1.4,2.5,1.1,3.8c-0.9,3.7-1.3,7.6-1.3,11.6c0,21.8,14.4,43.9,41.9,43.9h13.4
	c1.5,0,2.7,1.2,2.7,2.7v20.8c0,3.6,0.2,4.7,1.2,6.4c1.1,1.7,3.1,2.8,5.6,2.8c2.5,0,4.5-1.2,5.6-2.8c1.1-1.7,1.2-2.8,1.2-6.4v-20.8
	c0-1.5,1.2-2.7,2.7-2.7h13.4c12.9,0,23.8-4.8,31.5-14c6.7-8,10.4-18.6,10.4-30c0-3.9-0.5-7.8-1.4-11.6c-0.3-1.4,0.1-2.8,1.1-3.9
	L570.1,59c2.5-2.5,2.5-6.6-0.1-9.1c-2.5-2.4-6.6-2.1-9,0.3L550,61.2c-0.9,0.9-2.3,0.8-3.1-0.2c-7-9.4-18.1-15.9-33-15.9h-13.4
	c-1.5,0-2.7-1.2-2.7-2.7V31.2c0-1.5,1.2-2.8,2.8-2.8h26c3.4,0,4.5-0.3,5.9-1.1c1.6-1.1,2.6-2.8,2.6-5c0-2.1-1-3.9-2.6-5
	c-1.3-0.8-2.5-1.1-5.9-1.1h-71.3c-3.4,0-4.5,0.3-5.9,1.1c-1.6,1.1-2.6,2.8-2.6,5c0,2.1,1,3.9,2.6,5c1.3,0.8,2.5,1.1,5.9,1.1h26
	c1.5,0,2.8,1.2,2.8,2.8v11.1c0,1.5-1.2,2.7-2.7,2.7H468c-12.9,0-23.8,4.8-31.5,14c-0.5,0.6-1,1.2-1.5,1.9c-0.7,1-2.2,1.1-3.1,0.3
	L421,50.2c-2.5-2.5-6.5-2.7-9-0.3c-2.6,2.5-2.7,6.6-0.1,9.1L426.3,73.5z M544,87.5c0,0.5,0,1,0,1.5c0,8.4-2.8,16.6-7.6,22.3
	c-5.4,6.4-13.2,9.8-22.5,9.8h-3.8c-0.8,0-1.2-1-0.6-1.5l32.7-32.7C542.9,86.2,544,86.6,544,87.5z M497.8,59.6c0-1.5,1.2-2.7,2.7-2.7
	h13.4c11.4,0,19.4,5.1,24.2,12.2c0.9,1.4,0.8,3.2-0.4,4.3l-38,38c-0.7,0.7-1.9,0.2-1.9-0.8V59.6z M443.7,69c0.6-0.8,1.2-1.6,1.8-2.4
	c5.4-6.4,13.2-9.8,22.5-9.8h13.4c1.5,0,2.7,1.2,2.7,2.7v51.1c0,1-1.2,1.5-1.9,0.8l-38.1-38.1C443,72.2,442.8,70.4,443.7,69z
	 M437.9,87.5c0-0.9,1.1-1.3,1.7-0.7l32.7,32.7c0.6,0.6,0.2,1.5-0.6,1.5H468c-20.7,0-30.1-16.7-30.1-32.1
	C437.9,88.5,437.9,88,437.9,87.5z"/>
<g>
	<path fill="#3C4B62" d="M265.9,423.2c-0.6,2-1.3,3.9-2.7,5.1c-1.1,0.8-2.4,1.3-4,1.3c-1.6,0-2.9-0.5-4-1.3c-1.5-1.2-2.2-3-2.7-5.1
		l-11.4-45.5c-0.7-2.7-0.8-3.5-0.5-4.9c0.5-2.1,2.9-3.8,5.5-3.8c1.5,0,2.9,0.6,3.7,1.6c0.9,1.1,1.2,2,1.9,4.5l8,32l9.6-33.2
		c0.5-1.6,1.1-2.7,1.9-3.5c1-0.9,2.1-1.3,3.8-1.3c1.7,0,2.9,0.4,3.8,1.3c0.8,0.8,1.4,2,1.9,3.5l9.6,33.2l8-32
		c0.6-2.5,0.9-3.5,1.9-4.5c0.8-1,2.2-1.6,3.7-1.6c2.6,0,5,1.7,5.5,3.8c0.3,1.4,0.2,2.2-0.5,4.9l-11.4,45.5c-0.5,2.1-1.2,3.9-2.7,5.1
		c-1.1,0.8-2.4,1.3-4,1.3c-1.6,0-2.9-0.5-4-1.3c-1.5-1.2-2.1-3-2.7-5.1l-9-31.1L265.9,423.2z"/>
	<path fill="#3C4B62" d="M370.1,421.7c0,2.7-0.1,3.7-0.8,5.1c-0.9,1.6-2.8,2.8-5.1,2.8c-2.3,0-4.2-1.1-5.1-2.8
		c-0.7-1.4-0.8-2.4-0.8-5.1v-44.8c0-2.7,0.1-3.7,0.8-5.1c0.9-1.6,2.8-2.8,5.1-2.8c2.3,0,4.2,1.1,5.1,2.8c0.7,1.4,0.8,2.4,0.8,5.1
		V421.7z"/>
	<path fill="#3C4B62" d="M468.5,422.3c0,2.4-0.3,4.2-1.6,5.5c-1.2,1.2-2.6,1.8-4.4,1.8c-2.7,0-4.4-1.7-6.9-5.4l-21.3-31.5v29
		c0,2.7-0.1,3.7-0.8,5.1c-0.9,1.6-2.8,2.8-5.1,2.8c-2.3,0-4.2-1.1-5.1-2.8c-0.7-1.4-0.8-2.4-0.8-5.1v-45.4c0-2.4,0.3-4.2,1.6-5.5
		c1.2-1.2,2.7-1.8,4.4-1.8c2.7,0,4.4,1.7,6.9,5.4l21.3,31.5v-29c0-2.7,0.1-3.7,0.8-5.1c0.9-1.6,2.8-2.8,5.1-2.8
		c2.3,0,4.2,1.1,5.1,2.8c0.7,1.4,0.8,2.4,0.8,5.1V422.3z"/>
	<path fill="#3C4B62" d="M522.6,427.6c-1.6-1.6-1.6-3.8-1.6-5.5v-45.6c0-1.7,0-3.9,1.6-5.5c1.6-1.6,3.8-1.6,5.5-1.6h25.7
		c2.5,0,3.5,0.1,4.6,0.7c1.5,0.8,2.5,2.5,2.5,4.5c0,2.1-1,3.8-2.5,4.5c-1.1,0.6-2.1,0.7-4.6,0.7h-21v14.1h17c2.5,0,3.5,0.1,4.6,0.7
		c1.5,0.8,2.5,2.5,2.5,4.5c0,2.1-1,3.8-2.5,4.5c-1.1,0.6-2.1,0.7-4.6,0.7h-17v14.6h21c2.5,0,3.5,0.1,4.6,0.7
		c1.5,0.8,2.5,2.5,2.5,4.5c0,2.1-1,3.8-2.5,4.5c-1.1,0.6-2.1,0.7-4.6,0.7h-25.7C526.4,429.3,524.3,429.3,522.6,427.6z"/>
	<path fill="#3C4B62" d="M622.1,421.7c0,2.7-0.1,3.7-0.8,5.1c-0.9,1.6-2.8,2.8-5.1,2.8c-2.3,0-4.2-1.1-5.1-2.8
		c-0.7-1.4-0.8-2.4-0.8-5.1v-45.2c0-1.7,0-3.9,1.6-5.5c1.6-1.6,3.8-1.6,5.5-1.6h16.4c12.2,0,19.5,8.3,19.5,18.3
		c0,7.2-4,13-10.9,15.8l9,15.6c1.3,2.4,1.8,3.3,1.9,4.7c0.1,1.9-1,3.8-2.9,4.9c-1,0.6-2.1,0.9-3.1,0.9c-3.2,0-4.4-2.1-5.9-4.8
		l-11.1-19.4h-8.2V421.7z M633.3,395.6c5.1,0,8.4-3.2,8.4-7.9c0-4.7-3.3-7.9-8.4-7.9h-11.1v15.8H633.3z"/>
	<path fill="#3C4B62" d="M715.4,426.8c-0.7-1.4-0.8-2.4-0.8-5.1v-15.9l-13.6-27c-1.2-2.4-1.6-3.3-1.5-4.6c0-1.7,1.1-3.5,3.1-4.5
		c0.9-0.5,1.9-0.7,2.7-0.7c1,0,2,0.3,2.7,0.9c1.1,0.8,1.6,1.6,2.8,4l9.6,19.4l9.6-19.4c1.2-2.4,1.7-3.2,2.8-4
		c0.8-0.5,1.7-0.9,2.7-0.9c0.8,0,1.8,0.2,2.7,0.7c1.9,1,3,2.7,3.1,4.5c0,1.3-0.3,2.2-1.5,4.6l-13.6,27v15.9c0,2.7-0.1,3.7-0.8,5.1
		c-0.9,1.6-2.8,2.8-5.1,2.8C718.2,429.6,716.3,428.5,715.4,426.8z"/>
</g>
</svg>
