<?xml version="1.0" encoding="utf-8"?>
<!-- Generator: Adobe Illustrator 18.0.0, SVG Export Plug-In . SVG Version: 6.00 Build 0)  -->
<!DOCTYPE svg PUBLIC "-//W3C//DTD SVG 1.1//EN" "http://www.w3.org/Graphics/SVG/1.1/DTD/svg11.dtd">
<svg version="1.1" id="Layer_1" xmlns="http://www.w3.org/2000/svg" xmlns:xlink="http://www.w3.org/1999/xlink" x="0px" y="0px"
	 viewBox="0 0 982 448" enable-background="new 0 0 982 448" xml:space="preserve">
<path fill="#726658" d="M372.6,86.9c1.4,1.4,1.4,3.7,0,5.1l-13.8,13.8c-2.4,2.4-2.6,6.6-0.1,8.9c1.2,1.1,2.7,1.7,4.2,1.7
	c1.6,0,3.1-0.6,4.3-1.8l20.9-20.9c1.2-1.2,1.8-2.8,1.8-4.3c0-1.2-0.3-2.3-1-3.4c-0.2-0.3-0.5-0.7-0.8-1l-20.7-20.7
	c-2.4-2.4-6.3-2.6-8.7-0.3c-2.5,2.4-2.6,6.4-0.1,8.8L372.6,86.9z"/>
<path fill="#726658" d="M593.9,93.3l20.9,20.9c1.2,1.2,2.8,1.8,4.3,1.8c1.5,0,3-0.6,4.2-1.7c2.5-2.4,2.4-6.5-0.1-8.9l-13.9-13.9
	c-1.4-1.4-1.4-3.7,0-5.1l13.9-13.9c2.4-2.4,2.6-6.3,0.3-8.7c-2.4-2.5-6.4-2.6-8.8-0.1l-20.9,20.9c-1.2,1.2-1.8,2.8-1.8,4.3
	c0,1.2,0.3,2.3,1,3.4C593.4,92.7,593.6,93,593.9,93.3z"/>
<path fill="#726658" d="M308.5,101.4c1.6,1.6,4.3,1.6,5.9,0l9-9c1.6-1.6,1.6-4.3,0-5.9l-9-9c-1.6-1.6-4.3-1.6-5.9,0l-9,9
	c-1.6,1.6-1.6,4.3,0,5.9L308.5,101.4z"/>
<path fill="#726658" d="M63.7,194.6c-13.2,0-23.8,4.7-31.6,12.4c-12,12-12.8,22.8-12.8,51.9c0,29.1,0.8,39.9,12.8,51.9
	c7.8,7.7,18.5,12.4,31.6,12.4c13.2,0,23.8-4.7,31.6-12.4c12-12,12.8-22.8,12.8-51.9c0-29.1-0.8-39.9-12.8-51.9
	C87.5,199.3,76.8,194.6,63.7,194.6z M85.5,302.2c-5.8,6-13.2,9.1-21.9,9.1c-8.6,0-16.1-3.1-21.9-9.1c-7.9-8.1-8.9-17.2-8.9-43.2
	c0-26,1-35.1,8.9-43.2c5.8-6,13.2-9.1,21.9-9.1c8.6,0,16.1,3.1,21.9,9.1c7.9,8.1,8.9,17.2,8.9,43.2C94.4,285,93.5,294.1,85.5,302.2z
	"/>
<path fill="#726658" d="M256.3,266.4h26.5v0.1c2.6,0,3.9-0.2,4.9-0.6c0.4-0.1,0.7-0.3,1.1-0.5c1.6-1.1,2.6-2.8,2.6-5
	c0-2.1-1-3.9-2.6-5c-1.3-0.8-2.5-1.1-5.9-1.1h-32.6c-2,0-3.9,0.8-5.4,2.1l-7.8,7.3c-0.7,0.7-1.9,0.2-1.9-0.8v-53.1
	c0-1.2,0.9-2.1,2.1-2.1h55.1c3.4,0,4.5-0.3,5.9-1.1c1.6-1.1,2.6-2.8,2.6-5c0-2.1-1-3.9-2.6-5c-1.3-0.8-2.5-1.1-5.9-1.1h-62.6
	c-2.1,0-4.5,0-6.4,1.9c-1.9,1.9-1.9,4.3-1.9,6.4v109.8c0,3.6,0.2,4.7,1.2,6.4c1.1,1.7,3.1,2.8,5.6,2.8c2.5,0,4.5-1.2,5.6-2.8
	c1.1-1.7,1.2-2.8,1.2-6.4v-26.4c0-2.4,1-4.8,2.8-6.5l12.8-12.3C252.3,267.2,254.3,266.4,256.3,266.4z"/>
<path fill="#726658" d="M397,196.7c-1.3-0.8-2.5-1.1-5.9-1.1h-71.3c-3.4,0-4.5,0.3-5.9,1.1c-1.6,1.1-2.6,2.8-2.6,5
	c0,2.1,1,3.9,2.6,5c1.3,0.8,2.5,1.1,5.9,1.1h26.7c1.2,0,2.1,0.9,2.1,2.1v41c0,1.2-0.9,2.1-2.1,2.1h-10.1c-3.5,0-6.5,2.7-6.6,6.1
	c-0.1,3.6,2.8,6.5,6.3,6.5h10.4c1.2,0,2.1,0.9,2.1,2.1v46c0,3.6,0.2,4.7,1.2,6.4c1.1,1.7,3.1,2.8,5.6,2.8c2.5,0,4.5-1.2,5.6-2.8
	c1.1-1.7,1.2-2.8,1.2-6.4v-46c0-1.2,0.9-2.1,2.1-2.1h10.1c3.5,0,6.5-2.7,6.6-6.1c0.1-3.6-2.8-6.5-6.3-6.5h-10.4
	c-1.2,0-2.1-0.9-2.1-2.1v-41c0-1.2,0.9-2.1,2.1-2.1h26.7c3.4,0,4.5-0.3,5.9-1.1c1.6-1.1,2.6-2.8,2.6-5
	C399.5,199.6,398.6,197.8,397,196.7z"/>
<path fill="#726658" d="M607.9,316.2c0-2.1-1-3.9-2.6-5c-1.3-0.8-2.5-1.1-5.9-1.1h-55.1c-1.2,0-2.1-0.9-2.1-2.1v-22.9
	c0-2.5,1-4.8,2.8-6.5l12.6-12c1.5-1.4,3.4-2.2,5.4-2.2h26.7c3.4,0,4.5-0.3,5.9-1.1c1.6-1.1,2.6-2.8,2.6-5c0-2.1-1-3.9-2.6-5
	c-1.3-0.8-2.5-1.1-5.9-1.1h-32.6c-2,0-3.9,0.8-5.4,2.1l-7.6,7.1c-0.7,0.7-1.9,0.2-1.9-0.8v-50.9c0-1.2,0.9-2.1,2.1-2.1h55.1
	c3.4,0,4.5-0.3,5.9-1.1c1.6-1.1,2.6-2.8,2.6-5c0-2.1-1-3.9-2.6-5c-1.3-0.8-2.5-1.1-5.9-1.1h-62.6c-2.1,0-4.5,0-6.4,1.9
	c-1.9,1.9-1.9,4.3-1.9,6.4V314c0,2.1,0,4.5,1.9,6.4c1.9,1.9,4.3,1.9,6.4,1.9h62.6c3.4,0,4.5-0.3,5.9-1.1
	C606.9,320.1,607.9,318.4,607.9,316.2z"/>
<path fill="#726658" d="M709.3,199.6c-0.6-2.7-3.6-4.6-6.4-4.6c-1.3,0-2.8,0.4-3.7,1.3c-1.3,1.2-2,2.3-2.9,5.2l-30.8,94.1
	c-0.3,1-1.8,1-2.1,0l-11.5-35.1c-0.7-2.1-0.7-4.3,0-6.4l16.9-51.1c1.1-3.2-0.7-6.7-3.9-7.8c-3.2-1.1-6.7,0.7-7.8,3.9l-11.6,35.2
	c-0.3,1-1.8,1-2.1,0l-10.7-32.8c-1-2.9-1.6-4.1-2.9-5.2c-1-0.9-2.4-1.3-3.7-1.3c-2.8,0-5.8,2-6.4,4.6c-0.4,1.7-0.2,3.1,0.8,6
	l36.6,110c0.8,2.5,1.8,4.5,2.8,5.5c1.4,1.4,2.8,1.9,4.6,1.9c1.8,0,3.1-0.4,4.6-1.9c1.1-1,2-3,2.8-5.5l36.6-110
	C709.5,202.7,709.6,201.3,709.3,199.6z"/>
<path fill="#726658" d="M851,195c-2.5,0-4.5,1.2-5.6,2.8c-1.1,1.7-1.2,2.8-1.2,6.4v88.1c0,1.2-1.6,1.7-2.3,0.7l-21.8-32.1
	c-0.5-0.7-0.4-1.7,0.2-2.3l8.8-8.8c2.5-2.5,2.5-6.5,0-9c-2.5-2.5-6.5-2.5-9,0l-6.6,6.6c-0.8,0.8-2.2,0.7-2.8-0.3l-31.6-46.7
	c-2.4-3.5-4.4-5.4-7.7-5.4c-2,0-3.9,0.8-5.2,2.1c-1.5,1.5-2.1,3.6-2.1,6.8v109.8c0,3.6,0.2,4.7,1.2,6.4c1.1,1.7,3.1,2.8,5.6,2.8
	c2.5,0,4.5-1.2,5.6-2.8c1.1-1.7,1.2-2.8,1.2-6.4v-88.1c0-1.2,1.6-1.7,2.3-0.7l21.8,32.1c0.5,0.7,0.4,1.7-0.2,2.3l-8.8,8.8
	c-2.5,2.5-2.5,6.5,0,9c1.2,1.2,2.9,1.9,4.5,1.9c1.6,0,3.2-0.6,4.5-1.9l6.6-6.6c0.8-0.8,2.2-0.7,2.8,0.3l31.6,46.7
	c2.3,3.5,4.4,5.4,7.7,5.4c2,0,3.8-0.8,5.2-2.1c1.5-1.5,2.1-3.6,2.1-6.8V204.2c0-3.6-0.2-4.7-1.2-6.4C855.5,196.1,853.4,195,851,195z
	"/>
<path fill="#726658" d="M203.9,196.4c-1.3-0.8-2.5-1.1-5.9-1.1h-62.6c-2.1,0-4.5,0-6.4,1.9c-1.9,1.9-1.9,4.3-1.9,6.4v109.8
	c0,3.6,0.2,4.7,1.2,6.4c1.1,1.7,3.1,2.8,5.6,2.8c2.5,0,4.5-1.2,5.6-2.8c1.1-1.7,1.2-2.8,1.2-6.4V287c0-2.4,1-4.8,2.8-6.5l12.8-12.3
	c1.5-1.4,3.4-2.2,5.5-2.2h26.5v0.1c2.6,0,3.9-0.2,4.9-0.6c0.4-0.1,0.7-0.3,1.1-0.5c1.6-1.1,2.6-2.8,2.6-5c0-2.1-1-3.9-2.6-5
	c-1.3-0.8-2.5-1.1-5.9-1.1h-32.6c-2,0-3.9,0.8-5.4,2.1l-7.8,7.3c-0.7,0.7-1.9,0.2-1.9-0.8v-53.1c0-1.2,0.9-2.1,2.1-2.1H198
	c3.4,0,4.5-0.3,5.9-1.1c1.6-1.1,2.6-2.8,2.6-5C206.5,199.2,205.5,197.4,203.9,196.4z"/>
<path fill="#726658" d="M960.2,311.2c-1.3-0.8-2.5-1.1-5.9-1.1h-55.1c-1.2,0-2.1-0.9-2.1-2.1v-22.9c0-2.5,1-4.8,2.8-6.5l12.6-12
	c1.5-1.4,3.4-2.2,5.4-2.2h26.7c3.4,0,4.5-0.3,5.9-1.1c1.6-1.1,2.6-2.8,2.6-5c0-2.1-1-3.9-2.6-5c-1.3-0.8-2.5-1.1-5.9-1.1H912
	c-2,0-3.9,0.8-5.4,2.1l-7.6,7.1c-0.7,0.7-1.9,0.2-1.9-0.8v-50.9c0-1.2,0.9-2.1,2.1-2.1h55.1c3.4,0,4.5-0.3,5.9-1.1
	c1.6-1.1,2.6-2.8,2.6-5c0-2.1-1-3.9-2.6-5c-1.3-0.8-2.5-1.1-5.9-1.1h-62.6c-2.1,0-4.5,0-6.4,1.9c-1.9,1.9-1.9,4.3-1.9,6.4V314
	c0,2.1,0,4.5,1.9,6.4c1.9,1.9,4.3,1.9,6.4,1.9h62.6c3.4,0,4.5-0.3,5.9-1.1c1.6-1.1,2.6-2.8,2.6-5
	C962.8,314.1,961.8,312.3,960.2,311.2z"/>
<path fill="#726658" d="M505.5,252.9l-1.2,0.5c-0.7,0.3-1.5-0.2-1.5-0.9v-48.3c0-3.6-0.2-4.7-1.2-6.4c-1.1-1.7-3.1-2.8-5.6-2.8
	c-2.5,0-4.5,1.2-5.6,2.8c-1.1,1.7-1.2,2.8-1.2,6.4v54.2c0,1.3-0.7,2.4-1.9,3l-25.9,12c-1.3,0.6-2.8,0.6-4,0l-25.9-12
	c-1.2-0.5-1.9-1.7-1.9-3v-54.2c0-3.6-0.2-4.7-1.2-6.4c-1.1-1.7-3.1-2.8-5.6-2.8c-2.5,0-4.5,1.2-5.6,2.8c-1.1,1.7-1.2,2.8-1.2,6.4
	v48.3c0,0.8-0.8,1.3-1.5,0.9l-1.2-0.5c-3.1-1.5-7-0.3-8.6,2.8c-1.6,3.2-0.2,7.1,3,8.6l6.3,2.9c1.2,0.5,1.9,1.7,1.9,3v43.5
	c0,3.6,0.2,4.7,1.2,6.4c1.1,1.7,3.1,2.8,5.6,2.8c2.5,0,4.5-1.2,5.6-2.8c1.1-1.7,1.2-2.8,1.2-6.4v-37.2c0-0.9,1-1.6,1.8-1.2
	l25.4,11.8c0,0,0,0,0,0c0.1,0,0.1,0,0.2,0.1c0.2,0.1,0.4,0.2,0.6,0.2c0.1,0,0.2,0,0.2,0.1c0.2,0.1,0.4,0.1,0.6,0.1
	c0.1,0,0.1,0,0.2,0c0.3,0,0.5,0.1,0.8,0.1c0,0,0,0,0,0c0,0,0,0,0,0c0.3,0,0.5,0,0.8-0.1c0.1,0,0.1,0,0.2,0c0.2,0,0.4-0.1,0.6-0.1
	c0.1,0,0.2,0,0.2-0.1c0.2-0.1,0.4-0.1,0.6-0.2c0.1,0,0.1,0,0.2-0.1c0,0,0,0,0,0l25.4-11.8c0.9-0.4,1.8,0.2,1.8,1.2v37.2
	c0,3.6,0.2,4.7,1.2,6.4c1.1,1.7,3.1,2.8,5.6,2.8c2.5,0,4.5-1.2,5.6-2.8c1.1-1.7,1.2-2.8,1.2-6.4v-43.5c0-1.3,0.7-2.4,1.9-3l6.3-2.9
	c3.2-1.5,4.6-5.4,3-8.6C512.6,252.6,508.7,251.5,505.5,252.9z"/>
<path fill="#726658" d="M667.6,100.9c1.6,1.6,4.3,1.6,5.9,0l9-9c1.6-1.6,1.6-4.3,0-5.9l-9-9c-1.6-1.6-4.3-1.6-5.9,0l-9,9
	c-1.6,1.6-1.6,4.3,0,5.9L667.6,100.9z"/>
<path fill="#726658" d="M66.6,247c-1.6-1.6-4.3-1.6-5.9,0l-9,9c-1.6,1.6-1.6,4.3,0,5.9l9,9c1.6,1.6,4.3,1.6,5.9,0l9-9
	c1.6-1.6,1.6-4.3,0-5.9L66.6,247z"/>
<path fill="#726658" d="M740.9,253c-1.2,0-2.1-0.9-2.1-2.1v-46.7c0-3.6-0.2-4.7-1.2-6.4c-1.1-1.7-3.1-2.8-5.6-2.8
	c-2.5,0-4.5,1.2-5.6,2.8c-1.1,1.7-1.2,2.8-1.2,6.4v46.7c0,1.2-0.9,2.1-2.1,2.1h0c-3.5,0-6.5,2.7-6.6,6.1c-0.1,3.6,2.8,6.5,6.3,6.5
	h0.3c1.2,0,2.1,0.9,2.1,2.1v46c0,3.6,0.2,4.7,1.2,6.4c1.1,1.7,3.1,2.8,5.6,2.8c2.5,0,4.5-1.2,5.6-2.8c1.1-1.7,1.2-2.8,1.2-6.4v-46
	c0-1.2,0.9-2.1,2.1-2.1h0.3c3.8,0,6.7-3.3,6.3-7.1C747,255.3,744.1,253,740.9,253z"/>
<path fill="#726658" d="M426.3,73.5c1,1,1.4,2.5,1.1,3.8c-0.9,3.7-1.3,7.6-1.3,11.6c0,21.8,14.4,43.9,41.9,43.9h13.4
	c1.5,0,2.7,1.2,2.7,2.7v20.8c0,3.6,0.2,4.7,1.2,6.4c1.1,1.7,3.1,2.8,5.6,2.8c2.5,0,4.5-1.2,5.6-2.8c1.1-1.7,1.2-2.8,1.2-6.4v-20.8
	c0-1.5,1.2-2.7,2.7-2.7h13.4c12.9,0,23.8-4.8,31.5-14c6.7-8,10.4-18.6,10.4-30c0-3.9-0.5-7.8-1.4-11.6c-0.3-1.4,0.1-2.8,1.1-3.9
	L570.1,59c2.5-2.5,2.5-6.6-0.1-9.1c-2.5-2.4-6.6-2.1-9,0.3L550,61.2c-0.9,0.9-2.3,0.8-3.1-0.2c-7-9.4-18.1-15.9-33-15.9h-13.4
	c-1.5,0-2.7-1.2-2.7-2.7V31.2c0-1.5,1.2-2.8,2.8-2.8h26c3.4,0,4.5-0.3,5.9-1.1c1.6-1.1,2.6-2.8,2.6-5c0-2.1-1-3.9-2.6-5
	c-1.3-0.8-2.5-1.1-5.9-1.1h-71.3c-3.4,0-4.5,0.3-5.9,1.1c-1.6,1.1-2.6,2.8-2.6,5c0,2.1,1,3.9,2.6,5c1.3,0.8,2.5,1.1,5.9,1.1h26
	c1.5,0,2.8,1.2,2.8,2.8v11.1c0,1.5-1.2,2.7-2.7,2.7H468c-12.9,0-23.8,4.8-31.5,14c-0.5,0.6-1,1.2-1.5,1.9c-0.7,1-2.2,1.1-3.1,0.3
	L421,50.2c-2.5-2.5-6.5-2.7-9-0.3c-2.6,2.5-2.7,6.6-0.1,9.1L426.3,73.5z M544,87.5c0,0.5,0,1,0,1.5c0,8.4-2.8,16.6-7.6,22.3
	c-5.4,6.4-13.2,9.8-22.5,9.8h-3.8c-0.8,0-1.2-1-0.6-1.5l32.7-32.7C542.9,86.2,544,86.6,544,87.5z M497.8,59.6c0-1.5,1.2-2.7,2.7-2.7
	h13.4c11.4,0,19.4,5.1,24.2,12.2c0.9,1.4,0.8,3.2-0.4,4.3l-38,38c-0.7,0.7-1.9,0.2-1.9-0.8V59.6z M443.7,69c0.6-0.8,1.2-1.6,1.8-2.4
	c5.4-6.4,13.2-9.8,22.5-9.8h13.4c1.5,0,2.7,1.2,2.7,2.7v51.1c0,1-1.2,1.5-1.9,0.8l-38.1-38.1C443,72.2,442.8,70.4,443.7,69z
	 M437.9,87.5c0-0.9,1.1-1.3,1.7-0.7l32.7,32.7c0.6,0.6,0.2,1.5-0.6,1.5H468c-20.7,0-30.1-16.7-30.1-32.1
	C437.9,88.5,437.9,88,437.9,87.5z"/>
<g>
	<path fill="#726658" d="M265.9,423.2c-0.6,2-1.3,3.9-2.7,5.1c-1.1,0.8-2.4,1.3-4,1.3c-1.6,0-2.9-0.5-4-1.3c-1.5-1.2-2.2-3-2.7-5.1
		l-11.4-45.5c-0.7-2.7-0.8-3.5-0.5-4.9c0.5-2.1,2.9-3.8,5.5-3.8c1.5,0,2.9,0.6,3.7,1.6c0.9,1.1,1.2,2,1.9,4.5l8,32l9.6-33.2
		c0.5-1.6,1.1-2.7,1.9-3.5c1-0.9,2.1-1.3,3.8-1.3c1.7,0,2.9,0.4,3.8,1.3c0.8,0.8,1.4,2,1.9,3.5l9.6,33.2l8-32
		c0.6-2.5,0.9-3.5,1.9-4.5c0.8-1,2.2-1.6,3.7-1.6c2.6,0,5,1.7,5.5,3.8c0.3,1.4,0.2,2.2-0.5,4.9l-11.4,45.5c-0.5,2.1-1.2,3.9-2.7,5.1
		c-1.1,0.8-2.4,1.3-4,1.3c-1.6,0-2.9-0.5-4-1.3c-1.5-1.2-2.1-3-2.7-5.1l-9-31.1L265.9,423.2z"/>
	<path fill="#726658" d="M370.1,421.7c0,2.7-0.1,3.7-0.8,5.1c-0.9,1.6-2.8,2.8-5.1,2.8c-2.3,0-4.2-1.1-5.1-2.8
		c-0.7-1.4-0.8-2.4-0.8-5.1v-44.8c0-2.7,0.1-3.7,0.8-5.1c0.9-1.6,2.8-2.8,5.1-2.8c2.3,0,4.2,1.1,5.1,2.8c0.7,1.4,0.8,2.4,0.8,5.1
		V421.7z"/>
	<path fill="#726658" d="M468.5,422.3c0,2.4-0.3,4.2-1.6,5.5c-1.2,1.2-2.6,1.8-4.4,1.8c-2.7,0-4.4-1.7-6.9-5.4l-21.3-31.5v29
		c0,2.7-0.1,3.7-0.8,5.1c-0.9,1.6-2.8,2.8-5.1,2.8c-2.3,0-4.2-1.1-5.1-2.8c-0.7-1.4-0.8-2.4-0.8-5.1v-45.4c0-2.4,0.3-4.2,1.6-5.5
		c1.2-1.2,2.7-1.8,4.4-1.8c2.7,0,4.4,1.7,6.9,5.4l21.3,31.5v-29c0-2.7,0.1-3.7,0.8-5.1c0.9-1.6,2.8-2.8,5.1-2.8
		c2.3,0,4.2,1.1,5.1,2.8c0.7,1.4,0.8,2.4,0.8,5.1V422.3z"/>
	<path fill="#726658" d="M522.6,427.6c-1.6-1.6-1.6-3.8-1.6-5.5v-45.6c0-1.7,0-3.9,1.6-5.5c1.6-1.6,3.8-1.6,5.5-1.6h25.7
		c2.5,0,3.5,0.1,4.6,0.7c1.5,0.8,2.5,2.5,2.5,4.5c0,2.1-1,3.8-2.5,4.5c-1.1,0.6-2.1,0.7-4.6,0.7h-21v14.1h17c2.5,0,3.5,0.1,4.6,0.7
		c1.5,0.8,2.5,2.5,2.5,4.5c0,2.1-1,3.8-2.5,4.5c-1.1,0.6-2.1,0.7-4.6,0.7h-17v14.6h21c2.5,0,3.5,0.1,4.6,0.7
		c1.5,0.8,2.5,2.5,2.5,4.5c0,2.1-1,3.8-2.5,4.5c-1.1,0.6-2.1,0.7-4.6,0.7h-25.7C526.4,429.3,524.3,429.3,522.6,427.6z"/>
	<path fill="#726658" d="M622.1,421.7c0,2.7-0.1,3.7-0.8,5.1c-0.9,1.6-2.8,2.8-5.1,2.8c-2.3,0-4.2-1.1-5.1-2.8
		c-0.7-1.4-0.8-2.4-0.8-5.1v-45.2c0-1.7,0-3.9,1.6-5.5c1.6-1.6,3.8-1.6,5.5-1.6h16.4c12.2,0,19.5,8.3,19.5,18.3
		c0,7.2-4,13-10.9,15.8l9,15.6c1.3,2.4,1.8,3.3,1.9,4.7c0.1,1.9-1,3.8-2.9,4.9c-1,0.6-2.1,0.9-3.1,0.9c-3.2,0-4.4-2.1-5.9-4.8
		l-11.1-19.4h-8.2V421.7z M633.3,395.6c5.1,0,8.4-3.2,8.4-7.9c0-4.7-3.3-7.9-8.4-7.9h-11.1v15.8H633.3z"/>
	<path fill="#726658" d="M715.4,426.8c-0.7-1.4-0.8-2.4-0.8-5.1v-15.9l-13.6-27c-1.2-2.4-1.6-3.3-1.5-4.6c0-1.7,1.1-3.5,3.1-4.5
		c0.9-0.5,1.9-0.7,2.7-0.7c1,0,2,0.3,2.7,0.9c1.1,0.8,1.6,1.6,2.8,4l9.6,19.4l9.6-19.4c1.2-2.4,1.7-3.2,2.8-4
		c0.8-0.5,1.7-0.9,2.7-0.9c0.8,0,1.8,0.2,2.7,0.7c1.9,1,3,2.7,3.1,4.5c0,1.3-0.3,2.2-1.5,4.6l-13.6,27v15.9c0,2.7-0.1,3.7-0.8,5.1
		c-0.9,1.6-2.8,2.8-5.1,2.8C718.2,429.6,716.3,428.5,715.4,426.8z"/>
</g>
</svg>
